<svg width="161" height="165" viewBox="0 0 161 165" fill="none" xmlns="http://www.w3.org/2000/svg">
<path fill-rule="evenodd" clip-rule="evenodd" d="M90.9128 9.50688C90.8606 9.12277 91.1755 8.78357 91.5616 8.81815C102.195 9.77047 110.174 10.485 122.334 22.8334C122.375 22.8758 122.422 22.9171 122.47 22.9531C127.377 26.6721 128.975 29.4032 131.261 33.3125C133.724 37.522 136.985 43.0974 146.038 52.7432C155.249 62.5572 153.531 78.072 151.901 91.9318C150.36 105.03 142.723 115.82 135.933 125.414C134.896 126.878 133.879 128.315 132.907 129.727C127.126 138.127 115.356 149.404 102.836 153.976C96.2662 156.375 88.9223 155.779 81.4225 155.169C76.6791 154.784 71.8734 154.393 67.1616 154.752C55.9473 155.607 46.5195 152.913 37.4473 147.311C26.8842 140.788 19.8597 130.736 13.7217 119.533C11.4489 115.385 9.29126 111.111 7.45093 106.69C7.14154 105.946 7.6464 105.122 8.44028 104.988C18.1619 103.346 26.0485 95.4711 27.2586 85.1848C27.6627 81.7499 27.2802 78.4037 26.2535 75.3266C26.0138 74.6081 26.4353 73.8218 27.1657 73.6214C30.1519 72.8021 32.9027 71.3616 35.248 69.4327C35.6051 69.139 36.0932 69.0571 36.5243 69.2242C38.979 70.176 41.595 70.8367 44.3343 71.1589C61.5828 73.1881 77.1893 61.0296 79.1924 44.0023C79.4969 41.4139 79.4695 38.8619 79.1435 36.3881C79.0801 35.9065 79.2977 35.4304 79.7012 35.1598C85.6949 31.1409 90.0238 24.3917 90.9683 16.3632C91.2435 14.0239 91.214 11.7235 90.9128 9.50688Z" fill="#FED27C"/>
<g filter="url(#filter0_f_296_8969)">
<path fill-rule="evenodd" clip-rule="evenodd" d="M90.6828 13.3094C90.6118 12.556 91.2299 11.8986 91.9836 11.9661C92.0603 11.973 92.1369 11.9798 92.2133 11.9867C102.446 12.9031 110.125 13.5908 121.826 25.474C121.866 25.5149 121.912 25.5546 121.957 25.5892C126.68 29.1681 128.217 31.7964 130.418 35.5584C132.787 39.6093 135.926 44.9748 144.638 54.2572C153.502 63.7015 151.849 78.632 150.28 91.9697C148.797 104.575 141.448 114.958 134.913 124.191L134.913 124.191C133.915 125.6 132.937 126.982 132.001 128.342C126.438 136.425 115.111 147.277 103.063 151.677C96.7407 153.986 89.6735 153.412 82.4561 152.825C77.8914 152.454 73.2667 152.078 68.7324 152.424C57.9405 153.247 48.8678 150.654 40.1374 145.263C29.9721 138.986 23.2122 129.313 17.3054 118.531C15.0239 114.367 12.863 110.072 11.0434 105.62C10.7584 104.923 11.215 104.151 11.9529 103.999C20.9581 102.148 28.1723 94.7139 29.3052 85.0835C29.6941 81.7779 29.326 78.5577 28.3379 75.5965C28.1072 74.905 28.5128 74.1483 29.2158 73.9555C32.0895 73.1672 34.7367 71.7809 36.9936 69.9247C37.3373 69.6421 37.807 69.5633 38.2218 69.7241C40.5841 70.64 43.1016 71.2759 45.7377 71.586C62.3365 73.5387 77.3552 61.8382 79.2828 45.4522C79.5759 42.9612 79.5495 40.5053 79.2358 38.1245C79.1747 37.6611 79.3841 37.2028 79.7724 36.9425C85.5403 33.0749 89.7061 26.58 90.615 18.854C90.8365 16.9712 90.8529 15.1146 90.6828 13.3094Z" fill="#FFDD9A"/>
</g>
<circle cx="32.6657" cy="119.331" r="7.88706" transform="rotate(-83.2905 32.6657 119.331)" fill="#934C0C"/>
<path d="M105.742 121.955C109.503 126.73 108.68 133.65 103.905 137.411C99.1299 141.172 92.2099 140.35 88.4489 135.574C84.6879 130.799 87.5913 126.521 92.3666 122.76C97.1419 119 101.981 117.179 105.742 121.955Z" fill="#854308"/>
<g filter="url(#filter1_f_296_8969)">
<path d="M103.961 123.858C106.842 127.515 106.212 132.815 102.554 135.696C98.8971 138.576 93.597 137.947 90.7165 134.289C87.8359 130.632 90.0596 127.356 93.7171 124.475C97.3745 121.594 101.081 120.2 103.961 123.858Z" fill="#934C0C"/>
</g>
<circle cx="136.497" cy="77.9413" r="9.67585" transform="rotate(-83.2905 136.497 77.9413)" fill="#934C0C"/>
<circle cx="119.421" cy="33.309" r="4.43452" transform="rotate(-83.2905 119.421 33.309)" fill="#934C0C"/>
<circle cx="137.745" cy="105.287" r="4.43452" transform="rotate(-83.2905 137.745 105.287)" fill="#934C0C"/>
<circle cx="15.5058" cy="53.9653" r="3.42662" transform="rotate(-83.2905 15.5058 53.9653)" stroke="#934C0C" stroke-width="2.0158"/>
<circle cx="48.6161" cy="93.8879" r="3.42662" transform="rotate(-83.2905 48.6161 93.8879)" fill="#D3A77F" stroke="#D3A77F" stroke-width="2.0158"/>
<circle cx="64.161" cy="138.899" r="3.42662" transform="rotate(-83.2905 64.161 138.899)" fill="#D3A77F" stroke="#D3A77F" stroke-width="2.0158"/>
<path d="M124.448 55.5876C125.264 55.6836 125.664 56.3072 125.609 56.7822C125.553 57.2572 125.018 57.7709 124.203 57.6749C123.387 57.579 122.986 56.9554 123.042 56.4803C123.098 56.0053 123.632 55.4916 124.448 55.5876Z" fill="#D3A77F" stroke="#D3A77F" stroke-width="2.0158"/>
<circle cx="31.3556" cy="33.0977" r="2.21709" transform="rotate(-83.2905 31.3556 33.0977)" fill="#934C0C" stroke="#934C0C" stroke-width="2.0158"/>
<path d="M99.5814 68.7786C104.548 65.3406 99.6946 54.1735 87.0733 57.0977C83.2347 58.7528 79.5922 61.8018 82.4333 69.7048C84.2492 74.756 86.5806 77.7781 99.5814 68.7786Z" fill="#814006"/>
<g filter="url(#filter2_f_296_8969)">
<path d="M98.138 68.1889C102.318 65.2957 98.2333 55.8981 87.6119 58.359C84.3815 59.7518 81.3162 62.3176 83.7071 68.9683C85.2353 73.2192 87.1973 75.7623 98.138 68.1889Z" fill="#934C0C"/>
</g>
<path d="M47.0742 54.6159C50.1771 52.4679 47.1449 45.491 39.2595 47.318C36.8612 48.352 34.5854 50.2569 36.3605 55.1945C37.495 58.3504 38.9516 60.2385 47.0742 54.6159Z" fill="#934C0C"/>
<path d="M113.382 97.1858C114.173 94.4072 107.936 91.7567 103.741 96.6707C102.753 98.4481 102.372 100.681 106.537 102.737C109.198 104.051 111.313 104.459 113.382 97.1858Z" fill="#934C0C"/>
<path d="M69.3409 103.982C67.1286 102.124 62.1592 106.732 64.9278 112.569C66.1457 114.198 68.0272 115.459 71.6068 112.499C73.8946 110.608 75.1319 108.845 69.3409 103.982Z" fill="#934C0C"/>
<defs>
<filter id="filter0_f_296_8969" x="8.15444" y="9.15834" width="146.174" height="146.993" filterUnits="userSpaceOnUse" color-interpolation-filters="sRGB">
<feFlood flood-opacity="0" result="BackgroundImageFix"/>
<feBlend mode="normal" in="SourceGraphic" in2="BackgroundImageFix" result="shape"/>
<feGaussianBlur stdDeviation="1.40154" result="effect1_foregroundBlur_296_8969"/>
</filter>
<filter id="filter1_f_296_8969" x="86.7478" y="119.007" width="21.6719" height="21.1475" filterUnits="userSpaceOnUse" color-interpolation-filters="sRGB">
<feFlood flood-opacity="0" result="BackgroundImageFix"/>
<feBlend mode="normal" in="SourceGraphic" in2="BackgroundImageFix" result="shape"/>
<feGaussianBlur stdDeviation="1.32557" result="effect1_foregroundBlur_296_8969"/>
</filter>
<filter id="filter2_f_296_8969" x="80.1526" y="55.2505" width="22.3017" height="20.4882" filterUnits="userSpaceOnUse" color-interpolation-filters="sRGB">
<feFlood flood-opacity="0" result="BackgroundImageFix"/>
<feBlend mode="normal" in="SourceGraphic" in2="BackgroundImageFix" result="shape"/>
<feGaussianBlur stdDeviation="1.35093" result="effect1_foregroundBlur_296_8969"/>
</filter>
</defs>
</svg>
