<svg width="120" height="117" viewBox="0 0 120 117" fill="none" xmlns="http://www.w3.org/2000/svg">
<path fill-rule="evenodd" clip-rule="evenodd" d="M116.446 56.9947C116.728 56.9066 117.023 57.1001 117.046 57.3948C117.684 65.5078 118.163 71.5952 110.43 82.3056C110.403 82.3424 110.378 82.3829 110.357 82.4232C108.187 86.5846 106.338 88.1329 103.691 90.349C100.84 92.7353 97.0653 95.896 90.9683 103.928C84.765 112.099 72.8861 112.783 62.2622 113.322C52.2219 113.831 43.1408 109.465 35.066 105.583C35.0659 105.583 35.0659 105.583 35.0659 105.583L35.0659 105.583C33.8335 104.99 32.6245 104.409 31.4392 103.858C24.3907 100.582 14.417 93.1716 9.38743 84.3442C6.74818 79.712 6.26189 74.1168 5.76526 68.4026C5.45117 64.7887 5.13295 61.1273 4.26333 57.6318C2.19357 49.3124 3.01822 41.884 6.07378 34.3528C9.63153 25.5837 16.292 19.0251 23.9307 12.986C26.7591 10.7499 29.6962 8.58439 32.7849 6.63851C33.3041 6.31139 33.9878 6.5859 34.1896 7.16548C36.661 14.2627 43.5834 19.1875 51.4681 18.7877C54.101 18.6542 56.5671 17.9408 58.749 16.7775C59.2585 16.5059 59.9031 16.7226 60.1467 17.246C61.1425 19.3861 62.5754 21.2702 64.3236 22.7872C64.5898 23.0182 64.7135 23.3747 64.6428 23.7199C64.2399 25.6859 64.0764 27.736 64.1828 29.8357C64.8533 43.0571 75.9774 53.2387 89.0293 52.5768C91.0134 52.4762 92.9277 52.1309 94.7454 51.571C95.0992 51.4621 95.4848 51.565 95.7394 51.8338C99.5228 55.8268 105.146 58.2212 111.3 57.9091C113.093 57.8182 114.818 57.5032 116.446 56.9947Z" fill="#FED27C"/>
<g filter="url(#filter0_f_296_9026)">
<path fill-rule="evenodd" clip-rule="evenodd" d="M113.559 57.3056C114.116 57.1563 114.689 57.5372 114.734 58.1123C114.739 58.1708 114.743 58.2292 114.748 58.2876C115.362 66.095 115.822 71.9531 108.381 82.26C108.355 82.2954 108.331 82.3345 108.311 82.3732C106.222 86.3778 104.442 87.8678 101.895 90.0004C99.1523 92.2969 95.5193 95.3385 89.6519 103.068C83.6823 110.931 72.2508 111.589 62.0271 112.108C52.365 112.598 43.6259 108.396 35.8553 104.66L35.8544 104.66L35.8518 104.659C34.667 104.089 33.5047 103.53 32.3651 103C25.5821 99.8479 15.9841 92.7168 11.144 84.2218C8.60414 79.7641 8.13617 74.3797 7.65825 68.8808C7.35599 65.403 7.04975 61.8794 6.21289 58.5156C4.22109 50.5096 5.01468 43.361 7.95515 36.1134C11.3789 27.6747 17.7885 21.3631 25.1394 15.5515C27.9788 13.3067 30.9319 11.136 34.0457 9.20188C34.5335 8.8989 35.172 9.14376 35.3799 9.67902C37.9173 16.2113 44.4228 20.6868 51.8047 20.3125C54.3385 20.184 56.7117 19.4975 58.8115 18.378C59.3018 18.1166 59.9221 18.3252 60.1565 18.8289C61.1147 20.8883 62.4935 22.7013 64.1757 24.1613C64.4318 24.3836 64.5508 24.7266 64.4828 25.0588C64.0951 26.9507 63.9377 28.9236 64.0401 30.9443C64.6853 43.6677 75.3904 53.4658 87.9507 52.8289C89.8602 52.7321 91.7026 52.3997 93.4519 51.8608C93.7925 51.7559 94.1635 51.855 94.4086 52.1137C98.0494 55.9564 103.461 58.2606 109.383 57.9603C110.827 57.8872 112.224 57.6632 113.559 57.3056Z" fill="#FFDD9A"/>
</g>
<circle cx="26.4938" cy="27.1976" r="6.01196" transform="rotate(-2.90284 26.4938 27.1976)" fill="#934C0C"/>
<path d="M33.8229 82.4521C30.7128 85.8865 25.4073 86.1493 21.973 83.0391C18.5386 79.9289 18.2758 74.6235 21.386 71.1892C24.4961 67.7548 28.0805 69.3924 31.5149 72.5026C34.9492 75.6127 36.9331 79.0177 33.8229 82.4521Z" fill="#854308"/>
<g filter="url(#filter1_f_296_9026)">
<path d="M32.1658 81.3562C29.7837 83.9866 25.7202 84.1879 23.0898 81.8058C20.4594 79.4237 20.2581 75.3602 22.6402 72.7298C25.0223 70.0994 27.7676 71.3537 30.398 73.7358C33.0284 76.1179 34.5479 78.7258 32.1658 81.3562Z" fill="#934C0C"/>
</g>
<circle cx="70.8162" cy="99.9647" r="7.37547" transform="rotate(-2.90284 70.8162 99.9647)" fill="#934C0C"/>
<circle cx="102.186" cy="81.4501" r="3.38024" transform="rotate(-2.90284 102.186 81.4501)" fill="#934C0C"/>
<circle cx="50.4231" cy="104.382" r="3.38024" transform="rotate(-2.90284 50.4231 104.382)" fill="#934C0C"/>
<circle cx="47.6457" cy="35.9469" r="2.61196" transform="rotate(-2.90284 47.6457 35.9469)" fill="#D3A77F" stroke="#D3A77F" stroke-width="1.53656"/>
<circle cx="15.7961" cy="53.3588" r="2.61196" transform="rotate(-2.90284 15.7961 53.3588)" fill="#D3A77F" stroke="#D3A77F" stroke-width="1.53656"/>
<path d="M86.0825 88.0637C86.1142 88.689 85.6965 89.0693 85.3324 89.0878C84.9683 89.1062 84.5142 88.7701 84.4825 88.1448C84.4508 87.5195 84.8685 87.1391 85.2327 87.1207C85.5968 87.1022 86.0508 87.4383 86.0825 88.0637Z" fill="#D3A77F" stroke="#D3A77F" stroke-width="1.53656"/>
<path d="M73.0031 71.054C76.2191 74.349 83.994 69.2801 80.1899 60.1667C78.4574 57.4924 75.7023 55.143 70.1244 58.2841C66.5592 60.2918 64.5848 62.4287 73.0031 71.054Z" fill="#814006"/>
<g filter="url(#filter2_f_296_9026)">
<path d="M73.2629 69.8941C75.9693 72.667 82.5123 68.4013 79.3109 60.732C77.8529 58.4815 75.5344 56.5043 70.8404 59.1477C67.8401 60.8373 66.1785 62.6355 73.2629 69.8941Z" fill="#934C0C"/>
</g>
<path d="M53.4103 85.0417C55.5991 85.2821 56.7973 80.2576 52.5703 77.7303C51.1087 77.2141 49.3822 77.2118 48.367 80.6034C47.7182 82.7712 47.6807 84.4125 53.4103 85.0417Z" fill="#934C0C"/>
<path d="M42.697 52.8073C43.8115 50.9082 39.7166 47.7599 35.6815 50.5837C34.6127 51.7063 33.9045 53.2808 36.5843 55.5943C38.2971 57.073 39.7795 57.7785 42.697 52.8073Z" fill="#934C0C"/>
<defs>
<filter id="filter0_f_296_9026" x="2.97662" y="6.9334" width="114.219" height="107.35" filterUnits="userSpaceOnUse" color-interpolation-filters="sRGB">
<feFlood flood-opacity="0" result="BackgroundImageFix"/>
<feBlend mode="normal" in="SourceGraphic" in2="BackgroundImageFix" result="shape"/>
<feGaussianBlur stdDeviation="1.06833" result="effect1_foregroundBlur_296_9026"/>
</filter>
<filter id="filter1_f_296_9026" x="18.9567" y="69.2404" width="16.4172" height="16.249" filterUnits="userSpaceOnUse" color-interpolation-filters="sRGB">
<feFlood flood-opacity="0" result="BackgroundImageFix"/>
<feBlend mode="normal" in="SourceGraphic" in2="BackgroundImageFix" result="shape"/>
<feGaussianBlur stdDeviation="1.01042" result="effect1_foregroundBlur_296_9026"/>
</filter>
<filter id="filter2_f_296_9026" x="66.2051" y="55.8235" width="16.0277" height="16.9796" filterUnits="userSpaceOnUse" color-interpolation-filters="sRGB">
<feFlood flood-opacity="0" result="BackgroundImageFix"/>
<feBlend mode="normal" in="SourceGraphic" in2="BackgroundImageFix" result="shape"/>
<feGaussianBlur stdDeviation="1.02976" result="effect1_foregroundBlur_296_9026"/>
</filter>
</defs>
</svg>
