<svg width="158" height="25" viewBox="0 0 158 25" fill="none" xmlns="http://www.w3.org/2000/svg">
<path fill-rule="evenodd" clip-rule="evenodd" d="M7.11521 16.2368V23.4642H0V0H11.6274C12.0909 0 12.4811 0.00786158 12.9446 0.0340669C16.0321 0.19916 18.575 1.91561 19.8817 4.71695C20.5494 6.10228 20.8048 7.65052 20.6176 9.17709C20.4597 10.7939 19.7893 12.3179 18.7042 13.5262C17.6191 14.7346 16.1763 15.5641 14.5866 15.8935C13.5468 16.1279 12.4837 16.2431 11.4179 16.2368H7.11521ZM7.11521 10.7389H9.90944C10.4384 10.7389 10.8889 10.7258 11.4179 10.697C11.7688 10.6836 12.112 10.59 12.4211 10.4233C12.7302 10.2566 12.9971 10.0212 13.2012 9.73526C13.4274 9.43689 13.5718 9.08461 13.6202 8.71326C13.6674 8.38831 13.6726 8.11054 13.6412 7.78035C13.5862 7.19259 13.3132 6.64677 12.876 6.25047C12.4387 5.85418 11.869 5.63615 11.2791 5.63938H7.11521V10.7389Z" fill="white"/>
<path fill-rule="evenodd" clip-rule="evenodd" d="M37.8376 22.1513C37.7433 20.7703 37.6909 19.6015 37.6621 18.2153C37.6255 16.394 37.6045 14.861 37.5914 13.0397C37.5914 12.1073 37.4699 11.1788 37.23 10.2777C37.0861 9.68091 36.8182 9.12114 36.4437 8.63486C36.0692 8.14858 35.5965 7.7467 35.0564 7.45539C34.4147 7.09201 33.7202 6.83118 32.9981 6.68234C30.703 6.16627 28.3275 6.11904 26.0138 6.54345C25.3329 6.66137 24.7647 6.82647 24.1231 7.09376C23.4108 7.37529 22.7722 7.81574 22.2557 8.38157C21.7393 8.9474 21.3587 9.62368 21.1429 10.3589C20.964 10.9168 20.9095 11.5072 20.9831 12.0885C20.9936 12.1986 21.0224 12.2929 21.0722 12.3951L26.7104 12.534C26.6931 12.1935 26.7447 11.853 26.8623 11.5329C26.9466 11.2859 27.0862 11.0613 27.2705 10.8765C27.4548 10.6916 27.6788 10.5514 27.9255 10.4664C28.6475 10.1893 29.4439 10.1754 30.175 10.4271C30.4173 10.5021 30.6373 10.6359 30.8155 10.8164C30.9936 10.997 31.1245 11.2188 31.1964 11.4622C31.2906 11.7766 31.2435 12.0911 31.0523 12.361C30.8951 12.5917 30.6699 12.7676 30.4081 12.8642C30.2405 12.9297 30.0939 12.9742 29.9236 13.0214C29.1819 13.2238 28.4302 13.3873 27.6715 13.5114C27.0378 13.6163 26.5035 13.7132 25.875 13.8416C25.066 14.0004 24.2676 14.2087 23.4841 14.4653C22.761 14.6913 22.0984 15.0784 21.5462 15.5974C20.8061 16.2551 20.3297 17.1593 20.2054 18.1419C20.1085 18.8259 20.132 19.4207 20.2839 20.0942C20.4597 20.9331 20.8631 21.7074 21.4498 22.3319C22.0365 22.9565 22.7839 23.4072 23.6098 23.6345C25.4327 24.193 27.3937 24.0937 29.1511 23.3541C30.0097 23.0199 30.7662 22.4671 31.3456 21.7504C31.4687 22.1592 31.5813 22.4998 31.7227 22.9034C31.8013 23.1262 31.9061 23.2991 32.0632 23.4747H38.2697C38.0127 23.0798 37.8637 22.6244 37.8376 22.1539V22.1513ZM30.9476 18.8678C30.6821 19.292 30.2926 19.6241 29.832 19.819C29.3868 20.0156 28.9809 20.1204 28.4964 20.1702C28.0905 20.2095 27.7396 20.1807 27.3468 20.0706C27.0418 19.9916 26.7662 19.826 26.5533 19.5937C26.3664 19.3985 26.2392 19.1539 26.1866 18.8888C26.142 18.6867 26.154 18.4762 26.2215 18.2805C26.289 18.0849 26.4093 17.9118 26.569 17.7803C26.7767 17.5991 27.0165 17.4587 27.2761 17.3662C27.8961 17.1367 28.5251 16.9321 29.1616 16.753C29.9708 16.525 30.6386 16.2787 31.4059 15.9249C31.4792 16.5381 31.4766 17.0623 31.3902 17.6728C31.3299 18.1209 31.1911 18.4904 30.9476 18.8678Z" fill="white"/>
<path fill-rule="evenodd" clip-rule="evenodd" d="M75.3676 18.2153C75.3964 19.6015 75.4488 20.7703 75.5431 22.1513V22.1539C75.5692 22.6244 75.7182 23.0798 75.9752 23.4747H69.7687C69.6116 23.2991 69.5068 23.1262 69.4282 22.9034C69.2868 22.4998 69.1742 22.1592 69.0511 21.7504C68.4717 22.4671 67.7152 23.0199 66.8566 23.3541C65.0992 24.0937 63.1383 24.193 61.3153 23.6345C60.4894 23.4072 59.742 22.9565 59.1553 22.3319C58.5686 21.7074 58.1652 20.9331 57.9894 20.0942C57.8375 19.4207 57.814 18.8259 57.9109 18.1419C58.0352 17.1593 58.5116 16.2551 59.2517 15.5974C59.8039 15.0784 60.4665 14.6913 61.1896 14.4653C61.9731 14.2087 62.7715 14.0004 63.5805 13.8416C64.209 13.7132 64.7433 13.6163 65.377 13.5114C66.1357 13.3873 66.8874 13.2238 67.6291 13.0214C67.7994 12.9742 67.946 12.9297 68.1136 12.8642C68.3754 12.7676 68.6007 12.5917 68.7578 12.361C68.949 12.0911 68.9961 11.7766 68.9019 11.4622C68.83 11.2188 68.6991 10.997 68.521 10.8164C68.3428 10.6359 68.1228 10.5021 67.8806 10.4271C67.1494 10.1754 66.353 10.1893 65.631 10.4664C65.3843 10.5514 65.1603 10.6916 64.976 10.8765C64.7918 11.0613 64.6521 11.2859 64.5678 11.5329C64.4502 11.853 64.3986 12.1935 64.4159 12.534L58.7777 12.3951C58.7279 12.2929 58.6991 12.1986 58.6887 12.0885C58.615 11.5072 58.6695 10.9168 58.8484 10.3589C59.0642 9.62368 59.4448 8.9474 59.9612 8.38157C60.4777 7.81574 61.1163 7.37529 61.8286 7.09376C62.4702 6.82647 63.0384 6.66137 63.7193 6.54345C66.033 6.11904 68.4086 6.16627 70.7036 6.68234C71.4258 6.83118 72.1202 7.09201 72.7619 7.45539C73.302 7.7467 73.7747 8.14858 74.1492 8.63486C74.5237 9.12114 74.7916 9.68091 74.9355 10.2777C75.1754 11.1788 75.2969 12.1073 75.2969 13.0397C75.31 14.861 75.331 16.394 75.3676 18.2153ZM67.5375 19.819C67.9981 19.6241 68.3877 19.292 68.6531 18.8678C68.8966 18.4904 69.0354 18.1209 69.0957 17.6728C69.1821 17.0623 69.1847 16.5381 69.1114 15.9249C68.3441 16.2787 67.6763 16.525 66.8671 16.753C66.2306 16.9321 65.6016 17.1367 64.9816 17.3662C64.722 17.4587 64.4822 17.5991 64.2745 17.7803C64.1148 17.9118 63.9945 18.0849 63.927 18.2805C63.8595 18.4762 63.8475 18.6867 63.8922 18.8888C63.9447 19.1539 64.0719 19.3985 64.2588 19.5937C64.4717 19.826 64.7473 19.9916 65.0523 20.0706C65.4451 20.1807 65.796 20.2095 66.2019 20.1702C66.6864 20.1204 67.0923 20.0156 67.5375 19.819Z" fill="white"/>
<path d="M45.261 8.4748C46.0384 7.78434 46.915 7.21458 47.8615 6.78456C49.4062 6.04248 51.1739 5.91145 52.811 6.41768C53.6918 6.66049 54.4967 7.12299 55.1503 7.76188C55.8039 8.40077 56.2848 9.19516 56.548 10.0707C56.8189 10.9022 56.9533 11.7721 56.946 12.6467V23.4642H50.2943V13.7368C50.2943 13.4119 50.2524 13.1341 50.1581 12.8249C50.0804 12.5563 49.9426 12.3089 49.7552 12.1014C49.5678 11.894 49.3358 11.7318 49.0766 11.6273C48.5125 11.3842 47.8789 11.3567 47.2958 11.5499C46.7128 11.7431 46.2208 12.1436 45.9131 12.6755C45.6493 13.1123 45.5132 13.6143 45.5203 14.1247V23.4642H39.0781V6.70332H45.1196L45.261 8.4748Z" fill="white"/>
<path d="M121.913 6.78456C120.966 7.21458 120.09 7.78434 119.312 8.4748L119.171 6.70332H113.13V23.4642H119.572V14.1247C119.565 13.6143 119.701 13.1123 119.965 12.6755C120.272 12.1436 120.764 11.7431 121.347 11.5499C121.93 11.3567 122.564 11.3842 123.128 11.6273C123.387 11.7318 123.619 11.894 123.807 12.1014C123.994 12.3089 124.132 12.5563 124.21 12.8249C124.304 13.1341 124.346 13.4119 124.346 13.7368V23.4642H130.997V12.6467C131.005 11.7721 130.87 10.9022 130.599 10.0707C130.336 9.19516 129.855 8.40077 129.202 7.76188C128.548 7.12299 127.743 6.66049 126.862 6.41768C125.225 5.91145 123.458 6.04248 121.913 6.78456Z" fill="white"/>
<path d="M84.9265 17.3723C85.4057 17.4536 85.8064 17.5558 86.2673 17.7077C86.4521 17.7656 86.6178 17.8724 86.7469 18.0168C86.8759 18.1612 86.9636 18.3378 87.0006 18.528C87.0481 18.733 87.042 18.9469 86.9828 19.1488C86.9236 19.3508 86.8134 19.5341 86.6627 19.681C86.3655 19.9895 85.9738 20.1896 85.5498 20.2497C84.9579 20.344 84.4342 20.2968 83.8738 20.0924C83.6127 20.0019 83.3704 19.8642 83.1588 19.6862C82.8808 19.4576 82.6774 19.151 82.5748 18.8057C82.4836 18.5169 82.4411 18.2149 82.4491 17.9121H76.316V18.2685C76.316 18.8451 76.405 19.3351 76.6067 19.8775C76.9157 20.6899 77.3373 21.3188 77.9737 21.9111C78.7581 22.6592 79.7167 23.1996 80.7627 23.4834C82.9163 24.1235 85.1869 24.2668 87.4039 23.9027C88.4446 23.7526 89.4518 23.4246 90.3814 22.9331C90.794 22.7207 91.1806 22.4613 91.5337 22.16C92.3379 21.5042 92.9231 20.6185 93.2113 19.6212C93.4995 18.624 93.477 17.5625 93.1468 16.5783C92.9174 15.8338 92.4793 15.1708 91.8846 14.6679C91.0854 13.9605 90.1363 13.4435 89.1087 13.1559L88.4383 12.9646C87.1931 12.6135 85.9264 12.3439 84.6463 12.1575C84.2849 12.1051 83.9811 12.0474 83.625 11.9635C83.469 11.9267 83.3172 11.874 83.1719 11.8063C83.0822 11.7661 83.0012 11.7085 82.9337 11.6369C82.8661 11.5654 82.8134 11.4812 82.7783 11.3892C82.7433 11.2972 82.7267 11.1992 82.7296 11.1008C82.7324 11.0024 82.7546 10.9056 82.7948 10.8158L82.8236 10.7581C82.9176 10.5848 83.0456 10.4324 83.2 10.3099C83.3543 10.1874 83.5319 10.0974 83.7219 10.0453C84.4237 9.84354 85.0679 9.86188 85.7567 10.0925C86.0739 10.1973 86.3479 10.4037 86.5362 10.6798C86.7246 10.9559 86.8169 11.2864 86.7989 11.6203H92.7121C92.7121 10.9298 92.5898 10.2449 92.3507 9.59721C92.1202 8.93171 91.6995 8.34856 91.1409 7.92007C90.6656 7.53763 90.1326 7.23333 89.5617 7.01861C89.0089 6.80075 88.4349 6.64091 87.8491 6.54167C86.4609 6.29318 85.0478 6.21399 83.6407 6.30583C82.7922 6.353 82.0773 6.45782 81.2471 6.65174C80.1315 6.91379 79.2307 7.34618 78.3298 8.05372C77.5892 8.61928 77.0354 9.39437 76.7402 10.2785C76.3824 11.3464 76.4215 12.5076 76.8502 13.549C77.0736 14.1371 77.419 14.6712 77.8636 15.1161C78.3082 15.561 78.842 15.9066 79.4297 16.1302C80.0503 16.3765 80.5924 16.539 81.2471 16.6726C82.5382 16.9399 83.6302 17.147 84.9291 17.3697L84.9265 17.3723Z" fill="white"/>
<path fill-rule="evenodd" clip-rule="evenodd" d="M105.018 6.45258C104.355 6.34776 103.79 6.30321 103.119 6.30321C102.449 6.30321 101.886 6.34776 101.221 6.45258C99.375 6.71607 97.6629 7.5658 96.3365 8.87657C94.8714 10.242 93.9739 12.1094 93.8225 14.1071C93.7018 15.319 93.8129 16.5427 94.1498 17.713C94.6736 19.605 95.6635 21.0673 97.2216 22.2596C98.1903 23.0211 99.3226 23.5468 100.529 23.7952C101.38 23.9861 102.25 24.0793 103.122 24.073C104.038 24.073 104.813 23.9944 105.712 23.7952C106.918 23.5468 108.051 23.021 109.019 22.2596C110.529 21.1374 111.612 19.5337 112.088 17.713C112.431 16.4813 112.531 15.3807 112.416 14.1071C112.265 12.1093 111.367 10.2417 109.902 8.87657C108.576 7.56535 106.863 6.71553 105.018 6.45258ZM105.421 18.3341C105.285 18.6365 105.091 18.9091 104.85 19.1364C104.608 19.3637 104.325 19.5412 104.015 19.6588C103.705 19.7763 103.375 19.8316 103.044 19.8215C102.713 19.8114 102.387 19.736 102.085 19.5998C101.518 19.3541 101.065 18.9015 100.82 18.3341C100.585 17.8208 100.425 17.2762 100.346 16.7172C100.168 15.5379 100.189 14.5159 100.417 13.3472C100.534 12.7418 100.739 12.2466 101.076 11.7277C101.299 11.3893 101.602 11.1115 101.959 10.9193C102.316 10.7271 102.714 10.6265 103.119 10.6265C103.524 10.6265 103.923 10.7271 104.279 10.9193C104.636 11.1115 104.939 11.3893 105.162 11.7277C105.49 12.2167 105.715 12.7679 105.822 13.3472C106.05 14.5186 106.073 15.5406 105.895 16.7172C105.806 17.3068 105.665 17.7916 105.421 18.3341Z" fill="white"/>
<path d="M132.311 4.42869V0H138.573V4.42869H132.311Z" fill="white"/>
<path d="M132.311 23.4668V6.70593H138.573V23.4668H132.311Z" fill="white"/>
<path d="M150.894 23.7787C152.622 23.4556 154.2 22.5835 155.393 21.2918C156.002 20.6706 156.47 19.9254 156.766 19.1069C157.061 18.2885 157.177 17.4159 157.106 16.5486H151.07C151.049 16.9076 151.015 17.209 150.952 17.5628C150.874 18.0459 150.655 18.4952 150.323 18.8547C150.014 19.2128 149.583 19.4442 149.113 19.5046C148.741 19.5664 148.36 19.5393 148 19.4254C147.641 19.3115 147.313 19.1142 147.045 18.8495C146.559 18.4022 146.211 17.8259 146.042 17.188C145.599 15.6822 145.625 14.0774 146.115 12.5864C146.305 11.9514 146.725 11.4102 147.293 11.0691C147.7 10.8098 148.177 10.6832 148.659 10.7067C149.141 10.7301 149.603 10.9025 149.983 11.2001C150.281 11.4196 150.533 11.6962 150.723 12.0138C150.914 12.3314 151.04 12.6837 151.093 13.0502H156.82C156.882 12.1039 156.676 11.1593 156.226 10.3249C155.863 9.61357 155.375 8.97353 154.786 8.43548C153.865 7.55643 152.73 6.93395 151.494 6.62994C149.679 6.16086 148.05 6.12155 146.217 6.50153C143.004 7.16977 140.623 9.41556 139.767 12.5864C139.392 13.9805 139.33 15.2331 139.565 16.6587C139.717 17.6373 140.053 18.5782 140.555 19.4312C141.184 20.5455 142.044 21.5123 143.077 22.2666C144.323 23.2253 145.817 23.8089 147.382 23.949C148.616 24.0774 149.679 24.025 150.894 23.7787Z" fill="white"/>
</svg>
