<svg width="188" height="26" viewBox="0 0 188 26" fill="none" xmlns="http://www.w3.org/2000/svg">
<path fill-rule="evenodd" clip-rule="evenodd" d="M34.8078 13.3068C35.7834 13.3068 36.1767 13.1809 36.1767 12.4099C36.1767 9.1844 33.4547 6.0218 29.5211 6.00607C28.876 6.00607 28.7501 6.39943 28.7501 7.23335C28.7501 8.1302 28.9232 8.39769 29.647 8.46062C31.9127 8.64943 33.2659 10.3487 33.4704 12.347C33.5806 13.1337 33.7694 13.3068 34.8078 13.3068ZM28.4669 0.0742188C37.8446 0.0742188 41.904 6.41516 41.904 12.4099C41.904 17.9642 37.7344 25.0604 28.2466 25.0604C23.2431 25.0604 18.7903 23.9432 14.4005 22.0708C11.112 20.6705 8.64174 19.1442 7.09978 17.7439C6.91097 17.5708 6.76936 17.3505 6.76936 17.1774C6.76936 16.8628 6.98964 16.6582 7.36726 16.6582H14.1487C14.6208 16.6582 14.8253 16.4379 14.841 16.1705C14.841 15.9344 14.7152 15.7142 14.3061 15.5253C11.8987 14.3767 8.87775 12.7246 6.43894 11.1984C3.65397 9.45189 1.73439 7.94139 0.538587 6.68264C0.334042 6.4781 0.255371 6.27355 0.255371 6.03753C0.255371 5.75432 0.459916 5.4711 0.900476 5.4711H15.6907C16.147 5.4711 16.383 5.26655 16.383 4.93613C16.383 4.70012 16.2257 4.5113 15.8008 4.33822C14.7938 3.92913 13.7868 3.50431 12.4966 2.8592C11.175 2.19836 10.168 1.60045 9.49139 1.06548C9.36552 0.971077 9.22391 0.797999 9.22391 0.609187C9.22391 0.263031 9.45992 0.0742188 9.83755 0.0742188H28.4669ZM20.9774 12.4099C20.9774 17.1302 24.8638 20.9222 29.5211 20.9222C34.2886 20.9222 38.0176 17.1302 38.0334 12.4099C38.0334 7.75258 34.3043 4.02354 29.5211 4.02354C24.8638 4.02354 20.9774 7.75258 20.9774 12.4099ZM57.8032 10.7966C58.7748 10.8911 59.7464 10.9855 60.4229 11.0563C64.325 11.4654 66.0243 13.0231 65.9929 15.6035C65.9929 19.0178 62.8145 20.9217 57.874 20.9217C54.3967 20.9217 51.2813 19.899 49.4719 18.6874V15.0213C51.7219 16.4531 54.8845 17.4759 57.9998 17.4759C61.068 17.4759 62.2796 16.815 62.2796 15.7294C62.2796 14.9426 61.7761 14.4077 60.0453 14.2661C58.4561 14.1402 56.1904 13.9356 54.853 13.794C51.1712 13.3849 49.3303 11.9059 49.3303 9.19961C49.3303 5.98981 52.4614 4.10168 56.9929 4.10168C60.2184 4.10168 62.8145 4.65239 65.1589 5.76952V9.32548C62.8145 8.19261 60.124 7.56324 57.1974 7.56324C53.8932 7.56324 53.075 8.27129 53.075 9.12094C53.075 10.0021 53.846 10.3954 55.1834 10.537C55.8598 10.6078 56.831 10.7022 57.8023 10.7966L57.8023 10.7966L57.8025 10.7966L57.8026 10.7966L57.8032 10.7966ZM102.244 4.54243L97.9645 17.9324H97.7285L93.4331 4.54243H86.5886V20.4656H90.2547V7.39035H90.475L94.7547 20.4656H100.655L104.951 7.39035H105.171V20.4656H108.947V4.54243H102.244ZM124.21 4.54243C127.829 4.54243 129.717 6.77671 129.717 9.8449C129.717 12.3939 128.08 14.3764 125.358 14.9271L129.685 20.1037V20.4499H125.358L120.906 15.0215H116.358V20.4499H112.519V4.54243H124.21ZM116.374 11.8117H123.785C125.185 11.8117 126.035 11.1194 126.035 9.82917C126.035 8.57042 125.154 7.84664 123.785 7.84664H116.374V11.8117ZM184.157 4.54243H187.76V20.4656H184.157V14.1876H174.48V20.4656H170.594V4.54243H174.48V10.5844H184.157V4.54243ZM68.5425 4.54243V20.4656H83.3799V17.2086H72.2086V13.983H83.1911V10.7575H72.2086V7.79944H83.3799V4.54243H68.5425ZM160.028 10.7971C161 10.8915 161.972 10.9859 162.648 11.0567C166.55 11.4658 168.249 13.0235 168.218 15.6039C168.218 19.0182 165.04 20.9221 160.099 20.9221C156.622 20.9221 153.506 19.8994 151.697 18.6878V15.0217C153.947 16.4535 157.11 17.4763 160.225 17.4763C163.293 17.4763 164.505 16.8154 164.505 15.7298C164.505 14.943 164.001 14.4081 162.27 14.2665C160.681 14.1406 158.416 13.936 157.078 13.7944C153.396 13.3853 151.555 11.9063 151.555 9.20001C151.555 5.9902 154.687 4.10208 159.218 4.10208C162.444 4.10208 165.04 4.65278 167.384 5.76992V9.32588C165.04 8.19301 162.349 7.56364 159.423 7.56364C156.118 7.56364 155.3 8.27168 155.3 9.12134C155.3 10.0025 156.071 10.3958 157.409 10.5374C158.085 10.6082 159.057 10.7026 160.028 10.7971ZM145.105 4.54241V12.6928C145.105 15.7767 143.233 17.476 140.416 17.476C137.584 17.476 135.727 15.8082 135.727 12.6456V4.54241H131.904V12.2837C131.904 18.0582 135.507 20.9219 140.479 20.9219C145.247 20.9219 148.944 18.1841 148.944 12.4725V4.54241H145.105Z" fill="white"/>
</svg>
