<svg width="123" height="45" viewBox="0 0 123 45" fill="none" xmlns="http://www.w3.org/2000/svg">
<path d="M107.695 13.0006C116.701 13.0006 122.65 19.2557 122.65 28.7097C122.65 38.1637 116.68 44.4799 107.695 44.4799C98.3433 44.4799 92.1087 38.1637 92.1087 28.7097C92.1087 19.2557 98.3637 13.0006 107.695 13.0006ZM59.6723 13.6323V43.8279L52.9486 42.4424V14.9566L59.6723 13.6323ZM86.6075 12.9191V20.0096L82.7363 20.7227C79.4153 21.3544 77.2556 23.0862 77.2556 26.9371V43.8279L70.5319 42.4424V25.9184C70.5319 17.7072 75.3403 15.2826 82.7363 13.5711L86.6075 12.9191ZM15.113 13.0006C17.7617 13.0006 20.9808 14.4676 22.8146 17.1164C24.6483 14.7121 27.7045 13.1229 31.4738 13.0821C36.2007 13.021 42.089 15.9957 42.089 24.92V43.8279L35.3653 42.4424V24.92C35.3653 21.9249 33.2056 19.7855 30.0068 19.7855C26.808 19.7855 24.6483 21.9249 24.6483 24.92V43.8279L17.9247 42.4424V24.92C17.9247 21.9249 15.7649 19.7855 12.5661 19.7855C9.32656 19.7855 7.14648 21.9249 7.14648 24.92V43.8279L0.422852 42.4424V14.9566L7.14648 13.6323V16.7496C9.02094 14.4473 11.8734 13.0006 15.113 13.0006ZM107.695 19.378C102.479 19.378 98.9749 23.0862 98.9749 28.7097C98.9749 34.3332 102.479 38.1026 107.695 38.1026C112.565 38.1026 115.784 34.3332 115.784 28.7097C115.784 23.0862 112.565 19.378 107.695 19.378ZM56.4531 0.368164C58.898 0.368164 60.528 2.07966 60.528 4.6469C60.528 7.21415 58.898 8.92564 56.4531 8.92564C53.9062 8.92564 52.2151 7.21415 52.2151 4.6469C52.2151 2.07966 53.9062 0.368164 56.4531 0.368164Z" fill="white"/>
</svg>
