<svg width="150" height="50" viewBox="0 0 150 50" fill="none" xmlns="http://www.w3.org/2000/svg">
<path fill-rule="evenodd" clip-rule="evenodd" d="M46.5947 0.801758H45.8416V49.7497H46.5947V0.801758ZM13.9313 6.35546L18.3555 3.15502V25.464L16.0963 27.2525L13.9313 6.35546ZM4.98892 21.6988L9.88372 18.2159L11.4839 27.1583L8.28349 24.8051L12.8959 40.619L11.4839 41.7486L4.98892 21.6988ZM18.2613 27.1583L13.8372 30.3588L16.4729 47.3964L18.2613 45.8903V27.1583ZM6.96567 10.8737L12.0487 7.3909L14.9668 27.9114L13.4607 29.0409L11.2015 15.2037L8.56589 17.0864L6.96567 10.8737ZM5.27132 12.0033L6.96567 17.9335L4.51827 19.8161L0 15.7685L5.27132 12.0033ZM25.6977 6.35546L21.2735 3.15502V25.464L23.5327 27.2525L25.6977 6.35546ZM34.6401 21.6988L29.7453 18.2159L28.1451 27.1583L31.3455 24.8051L26.7331 40.619L28.1451 41.7486L34.6401 21.6988ZM21.3677 27.1583L25.7918 30.3588L23.1561 47.3964L21.3677 45.8903V27.1583ZM32.6633 10.8737L27.5803 7.3909L24.6622 27.9114L26.1683 29.0409L28.4275 15.2037L31.0631 17.0864L32.6633 10.8737ZM34.3577 12.0033L32.6633 17.9335L35.1107 19.8161L39.629 15.7685L34.3577 12.0033ZM66.1202 3.74555H70.115V16.016C70.115 17.3937 69.786 18.5992 69.1279 19.6325C68.4759 20.6658 67.5625 21.4715 66.3878 22.0497C65.213 22.6217 63.8445 22.9077 62.2823 22.9077C60.7139 22.9077 59.3423 22.6217 58.1675 22.0497C56.9928 21.4715 56.0794 20.6658 55.4274 19.6325C54.7755 18.5992 54.4495 17.3937 54.4495 16.016V3.74555H58.4443V15.6746C58.4443 16.3942 58.6011 17.0339 58.9148 17.5936C59.2346 18.1533 59.6836 18.593 60.2618 18.9129C60.8399 19.2327 61.5134 19.3926 62.2823 19.3926C63.0572 19.3926 63.7307 19.2327 64.3027 18.9129C64.8809 18.593 65.3268 18.1533 65.6405 17.5936C65.9603 17.0339 66.1202 16.3942 66.1202 15.6746V3.74555ZM73.1988 22.6401V20.2691L82.6276 7.03918H73.1803V3.74555H87.6465V6.11659L78.2084 19.3465H87.6649V22.6401H73.1988ZM54.4495 27.843V46.7376H66.5446V43.4439H58.4443V27.843H54.4495ZM68.1509 27.843V46.7376H80.9195V43.4439H72.1457V38.9325H80.2276V35.6388H72.1457V31.1366H80.8826V27.843H68.1509ZM94.6902 27.843H98.685V40.1134C98.685 41.4911 98.3559 42.6966 97.6978 43.7299C97.0458 44.7632 96.1325 45.569 94.9577 46.1471C93.783 46.7191 92.4145 47.0051 90.8522 47.0051C89.2838 47.0051 87.9122 46.7191 86.7375 46.1471C85.5627 45.569 84.6493 44.7632 83.9974 43.7299C83.3454 42.6966 83.0194 41.4911 83.0194 40.1134V27.843H87.0142V39.772C87.0142 40.4917 87.1711 41.1313 87.4848 41.691C87.8046 42.2507 88.2536 42.6905 88.8317 43.0103C89.4099 43.3302 90.0834 43.4901 90.8522 43.4901C91.6272 43.4901 92.3007 43.3302 92.8727 43.0103C93.4508 42.6905 93.8967 42.2507 94.2104 41.691C94.5302 41.1313 94.6902 40.4917 94.6902 39.772V27.843ZM108.913 42.1984L104.346 27.843H99.9084L106.431 46.7376H111.579L118.093 27.843H113.664L109.088 42.1984H108.913ZM119.328 46.7376V27.843H132.059V31.1366H123.322V35.6388H131.404V38.9325H123.322V43.4439H132.096V46.7376H119.328ZM150 46.7376V27.843H146.024V39.7259H145.858L137.702 27.843H134.196V46.7376H138.191V34.8454H138.329L146.55 46.7376H150Z" fill="white"/>
</svg>
