<svg width="178" height="59" viewBox="0 0 178 59" fill="none" xmlns="http://www.w3.org/2000/svg">
<path d="M13.0992 25.9891H12.5559L4.40571 5.79477C2.82988 1.90064 1.70716 1.59291 0.113281 1.59291V0.995117H8.80674V1.61095C7.30342 1.61095 6.01763 2.11818 6.9412 4.52703L13.5519 21.8237L20.018 5.05195C21.1046 2.24482 19.873 1.53843 18.4966 1.53843V0.995117H25.5966V1.57451C23.7671 1.57451 22.5899 2.69758 21.9016 4.40004L13.0992 25.9891ZM27.6595 25.6994V25.1922C29.235 25.1922 30.1225 24.1055 30.1225 21.57V8.34828C30.1225 5.81281 29.235 4.72617 27.6595 4.72617V4.21894H34.9766V4.72617C33.4008 4.72617 32.5133 5.81281 32.5133 8.34828V21.57C32.5133 24.1055 33.4008 25.1922 34.9766 25.1922V25.6994H27.6595V25.6994ZM50.6423 25.9891C43.941 25.9891 39.7027 21.0809 39.7027 15.086C39.7027 9.07306 44.0135 3.92924 51.077 3.92924C53.3048 3.92924 56.0578 4.58115 57.6333 5.43256V9.6705H57.1264C57.1264 7.73281 55.2789 4.97979 50.5698 4.97979C44.756 4.97979 42.4377 9.32632 42.4377 14.5062C42.4377 19.6681 45.9332 24.9385 50.932 24.9385C54.5365 24.9385 57.0359 22.9644 57.7783 20.8997L58.3216 21.0809C57.5972 23.7072 55.1159 25.9891 50.6423 25.9891ZM66.2528 25.6994V25.1922C67.8106 25.1922 69.0603 24.1055 69.0603 21.57V5.36004H65.8726C62.4132 5.36004 61.9243 7.73281 61.9243 8.8916H61.381V4.25502H79.1305V8.8916H78.5872C78.5872 7.73281 78.098 5.36004 74.6385 5.36004H71.4508V21.57C71.4508 24.1055 72.7005 25.1922 74.2583 25.1922V25.6994H66.2528V25.6994ZM81.2663 15.0315C81.2663 10.2863 84.5987 3.92924 92.3505 3.92924C98.6355 3.92924 103.345 8.45723 103.345 14.8688C103.345 19.614 100.012 25.9711 92.26 25.9711C85.9754 25.9711 81.2663 21.4431 81.2663 15.0315ZM100.592 15.6654C100.592 9.19969 96.5163 4.97979 92.1334 4.97979C87.9131 4.97979 84.0193 7.49723 84.0193 14.2346C84.0193 20.7006 88.0942 24.9205 92.4775 24.9205C96.6974 24.9205 100.592 22.4031 100.592 15.6654ZM117.887 21.2078C116.365 18.654 114.843 15.7379 112.453 15.7379H111.765L111.747 21.57C111.747 24.1055 112.996 25.1922 114.554 25.1922V25.6994H106.911V25.1922C108.486 25.1922 109.374 24.1055 109.374 21.57V8.34828C109.374 5.81281 108.486 4.72617 106.911 4.72617V4.21894H114.373C118.43 4.25502 121.11 6.02999 121.11 9.50743C121.11 12.0433 119.299 14.6332 116.184 15.4301C117.868 16.1001 118.991 18.3462 120.096 20.2659C122.614 24.5042 124.262 25.3011 125.348 25.1922L125.457 25.6994C124.841 25.8625 123.845 25.9891 123.048 25.9891C120.458 25.9891 119.299 23.5622 117.887 21.2078ZM118.72 10.0872C118.72 7.00803 116.691 5.25145 113.286 5.25145H111.765V14.6877H114.373C116.419 14.6877 118.72 12.8763 118.72 10.0872ZM128.281 25.6994V25.1922C129.857 25.1922 130.744 24.1055 130.744 21.57V8.34828C130.744 5.81281 129.857 4.72617 128.281 4.72617V4.21894H135.598V4.72617C134.022 4.72617 133.134 5.81281 133.134 8.34828V21.57C133.134 24.1055 134.022 25.1922 135.598 25.1922V25.6994H128.281V25.6994ZM151.825 25.6994V25.1741C153.456 25.1741 154.614 24.6488 153.727 22.222L152.115 17.7665L145.214 17.6398L143.892 21.6061C142.951 24.3952 144.2 25.1922 145.812 25.1922V25.6994H138.712V25.1922C140.324 25.1922 141.411 23.9789 142.045 22.258L148.746 3.92924H149.272L155.828 20.9542C157.331 24.848 158.255 25.1922 159.722 25.1922V25.6994H151.825V25.6994ZM151.681 16.6073L148.493 7.8414L145.577 16.5893L151.681 16.6073ZM157.8 7.91391C158.742 6.91748 159.231 5.97587 159.231 5.28753C159.231 4.85281 158.996 4.23698 158.489 4.23698C158.09 4.05587 157.764 3.65758 157.764 3.15034C157.764 2.51647 158.253 1.71954 159.195 1.71954C160.064 1.71954 160.68 2.53451 160.68 3.76617C160.68 5.30557 159.792 6.55527 158.561 7.8414L158.145 8.27612L157.8 7.91391ZM165.28 24.7033V19.9942H165.823C165.823 22.4936 168.087 24.9205 170.641 24.9205C173.611 24.9205 175.133 22.9644 175.133 21.1894C175.133 19.4509 174.281 17.8931 170.713 15.5748C167.019 13.1844 165.715 11.0288 165.715 8.8916C165.715 6.08447 167.997 3.92924 171.583 3.92924C173.503 3.92924 174.698 4.27341 176.038 4.70813V8.87356H175.531C175.531 6.79085 174.155 4.97979 171.257 4.97979C169.12 4.97979 167.598 6.22949 167.598 8.05859C167.598 9.94215 168.866 11.2283 172.235 13.4376C175.676 15.6838 177.161 17.839 177.161 19.9581C177.161 23.5077 174.481 25.9711 170.388 25.9711C168.685 25.9711 166.312 25.0475 165.28 24.7033ZM31.8967 57.2118V51.5971H32.5126C32.5126 54.984 35.0845 57.5375 38.7975 57.5375C41.8403 57.5375 43.7963 55.781 43.7963 53.5168C43.7963 51.3616 41.9488 49.1519 38.3083 46.9241C33.5631 43.8634 32.3859 41.6176 32.3859 39.2448C32.3859 35.8038 34.9579 33.3769 39.3769 33.3769C41.4055 33.3769 42.7097 33.9202 44.1225 34.4636V39.1723H43.5608C43.5608 36.9085 41.9128 34.4636 39.0511 34.4636C35.972 34.4636 34.197 36.148 34.197 38.2668C34.197 40.2593 35.9539 41.8532 39.8842 44.4431C44.1041 47.2142 45.7524 49.6411 45.7524 52.3216C45.7524 58.1898 39.667 58.5881 38.0547 58.5881C36.117 58.5881 33.0559 57.61 31.8967 57.2118ZM50.3335 58.2984V57.7911C51.909 57.7911 52.7965 56.7045 52.7965 54.169V40.9473C52.7965 38.4118 51.909 37.3252 50.3335 37.3252V36.8179H63.9172V41.1468H63.3739C63.3739 40.0962 63.0661 37.959 59.4256 37.959C59.4256 37.959 55.1873 37.9046 55.1873 37.941V46.6344L58.8823 46.6525C61.2367 46.6708 61.3092 45.4572 61.3453 44.3886H61.8705L61.8886 50.2388H61.3453C61.3092 49.0977 61.2367 47.9566 58.8823 47.7755C58.2481 47.721 55.1873 47.6305 55.1873 47.6305V54.1871C55.1873 56.6684 55.2959 57.2843 59.3531 57.2659C62.2508 57.2659 63.6816 55.7445 63.6816 53.7884H64.2069V58.2984H50.3335V58.2984ZM79.3293 58.5881C72.6276 58.5881 68.3897 53.6798 68.3897 47.685C68.3897 41.6721 72.7001 36.5282 79.7636 36.5282C81.9914 36.5282 84.7444 37.1801 86.3203 38.0315V42.2695H85.813C85.813 40.3318 83.9659 37.5788 79.2568 37.5788C73.443 37.5788 71.1247 41.9253 71.1247 47.1052C71.1247 52.2671 74.6202 57.5375 79.619 57.5375C83.2231 57.5375 85.7225 55.5634 86.4653 53.4987L87.0086 53.6798C86.2842 56.3062 83.8028 58.5881 79.3293 58.5881ZM101.551 53.8068C100.029 51.253 98.5078 48.3369 96.117 48.3369H95.4286L95.4106 54.169C95.4106 56.7045 96.6603 57.7911 98.2181 57.7911V58.2984H90.5748V57.7911C92.1503 57.7911 93.0378 56.7045 93.0378 54.169V40.9473C93.0378 38.4118 92.1503 37.3252 90.5748 37.3252V36.8179H98.037C102.094 36.854 104.774 38.629 104.774 42.1064C104.774 44.6423 102.963 47.2322 99.8481 48.0291C101.532 48.6991 102.655 50.9452 103.76 52.8649C106.278 57.1032 107.926 57.9001 109.013 57.7911L109.121 58.2984C108.505 58.4615 107.509 58.5881 106.712 58.5881C104.122 58.5881 102.963 56.1612 101.551 53.8068ZM102.384 42.6862C102.384 39.607 100.355 37.8504 96.95 37.8504H95.4286V47.2867H98.037C100.084 47.2867 102.384 45.4753 102.384 42.6862ZM111.474 58.2984V57.7911C113.05 57.7911 113.937 56.7045 113.937 54.169V40.9473C113.937 38.4118 113.05 37.3252 111.474 37.3252V36.8179H125.058V41.1468H124.515C124.515 40.0962 124.207 37.959 120.566 37.959C120.566 37.959 116.328 37.9046 116.328 37.941V46.6344L120.023 46.6525C122.377 46.6708 122.45 45.4572 122.486 44.3886H123.011L123.029 50.2388H122.486C122.45 49.0977 122.377 47.9566 120.023 47.7755C119.389 47.721 116.328 47.6305 116.328 47.6305V54.1871C116.328 56.6684 116.437 57.2843 120.494 57.2659C123.392 57.2659 124.822 55.7445 124.822 53.7884H125.348V58.2984H111.474V58.2984ZM134.638 58.2984V57.7911C136.195 57.7911 137.445 56.7045 137.445 54.169V37.959H134.258C130.798 37.959 130.309 40.3318 130.309 41.4906H129.766V36.854H147.515V41.4906H146.972C146.972 40.3318 146.483 37.959 143.024 37.959H139.836V54.169C139.836 56.7045 141.085 57.7911 142.643 57.7911V58.2984H134.638Z" fill="white"/>
</svg>
