<svg width="113" height="49" viewBox="0 0 113 49" fill="none" xmlns="http://www.w3.org/2000/svg">
<path d="M12.7783 29.6683C12.5395 30.5019 12.3234 31.3129 12.1327 32.0852C11.8939 33.0576 11.6725 33.942 11.4738 34.7343C11.2777 35.5106 11.139 36.1362 11.0616 36.5924C10.9029 37.402 10.3733 37.9129 9.52766 38.0796C8.79937 38.2237 8.01639 38.1637 7.2094 37.9009C6.41442 37.6421 5.69147 37.1913 5.05788 36.5617C4.39495 35.9014 4.05749 35.0704 4.05749 34.0914C4.05749 33.2951 4.25757 32.0372 4.66706 30.2445C5.06589 28.4972 5.64345 26.423 6.38241 24.0807C7.11603 21.7558 8.00439 19.1961 9.02479 16.471C9.90247 14.1288 10.8842 11.7718 11.9513 9.44824C12.3008 8.6866 13.0224 8.16239 13.8547 8.06636C15.7381 7.8476 17.3734 7.90096 18.758 8.22775C19.5917 8.42383 20.0398 9.33219 19.6904 10.1138C18.798 12.1093 17.9737 14.1008 17.2374 16.0375C16.6425 17.6075 16.0703 19.1601 15.5327 20.67C15.4794 20.8181 15.6314 20.9568 15.7755 20.8915C16.4931 20.5607 17.2027 20.1712 17.8963 19.7257C19.0328 18.996 20.0678 18.1237 20.9722 17.134C21.8739 16.1469 22.6142 15.0318 23.1704 13.8206C23.72 12.6228 24.0001 11.3183 24.0001 9.94577C24.0001 8.17973 23.5119 6.87655 22.5475 6.0709C21.5724 5.2559 20.1972 4.84374 18.4632 4.84374C16.6158 4.84374 14.9258 5.28258 13.4412 6.14693C11.9166 7.03395 10.6001 8.12505 9.52499 9.39088C8.44323 10.6634 7.59089 12.0239 6.99198 13.4338C6.39842 14.833 6.09696 16.0589 6.09696 17.0779C6.09696 17.8089 5.71148 18.3371 5.0112 18.5639C4.39762 18.7639 3.72135 18.7346 3.02641 18.4758C2.35814 18.2264 1.73923 17.7355 1.18568 17.0166C0.628125 16.2936 0.34668 15.3146 0.34668 14.1074C0.34668 13.0537 0.745505 11.8118 1.56716 10.3112C2.36748 8.84933 3.55062 7.4261 5.08189 6.08023C6.61183 4.73703 8.54193 3.57123 10.8215 2.61619C13.1157 1.65581 15.7661 1.16895 18.7006 1.16895C20.372 1.16895 22.0473 1.36502 23.6799 1.75051C25.3273 2.14133 26.8185 2.73357 28.115 3.51388C29.4276 4.30353 30.5053 5.29459 31.3176 6.46038C32.1446 7.64619 32.5648 9.03741 32.5648 10.5954C32.5648 12.2734 32.1967 13.846 31.4697 15.2706C30.7494 16.6818 29.7584 17.9703 28.5245 19.1014C27.3027 20.2232 25.8541 21.2129 24.2202 22.0426C22.8716 22.7269 21.4377 23.3098 19.9505 23.7793C19.8558 23.8086 19.8224 23.858 19.8264 23.9567C19.8584 24.6983 19.9118 25.4306 19.9851 26.1375C20.0692 26.9472 20.1812 27.7382 20.3173 28.4878C20.4507 29.2241 20.6121 29.9417 20.7948 30.6207C20.9375 31.1462 21.0949 31.6584 21.2657 32.1426C21.3737 32.4521 21.4884 32.7548 21.6045 33.0403C21.8365 33.6139 22.094 34.1607 22.3674 34.6703C22.6355 35.1691 22.925 35.6427 23.2304 36.0775C23.5265 36.5017 23.8453 36.9005 24.1788 37.2646C24.5016 37.6181 24.8444 37.9449 25.1965 38.2344C25.5393 38.5171 25.9008 38.7719 26.2716 38.9933C26.6318 39.2081 27.0093 39.3948 27.3934 39.5495C27.7722 39.7016 28.1657 39.823 28.5605 39.9124C28.9554 40.0004 29.3635 40.0591 29.7757 40.0858C30.1879 40.1111 30.616 40.1058 31.0429 40.0671C31.4764 40.0284 31.9205 39.9564 32.3634 39.8537C32.8142 39.7483 33.2758 39.6056 33.7333 39.4335C34.2028 39.2561 34.6776 39.0427 35.1445 38.7973C35.3232 38.7039 35.5046 38.6052 35.6834 38.5011C36.2676 38.1637 37.0119 38.3251 37.4054 38.8733C37.7989 39.4215 37.7108 40.1791 37.2026 40.6233C36.9532 40.8407 36.7038 41.0541 36.4557 41.2582C35.8554 41.7504 35.2525 42.2079 34.6643 42.6161C34.1041 43.0056 33.5359 43.3644 32.9756 43.6845C32.6942 43.8459 32.3994 44.0047 32.1006 44.1567C31.5244 44.4488 30.9402 44.7063 30.3666 44.9237C29.793 45.1384 29.2181 45.3172 28.6566 45.4519C28.0964 45.588 27.5321 45.6853 26.9799 45.7427C26.5878 45.7827 26.1929 45.8027 25.8101 45.8027C25.6554 45.8027 25.4993 45.8 25.3446 45.7934C24.8124 45.7707 24.2815 45.7067 23.7666 45.6053C23.5119 45.5546 23.2558 45.4946 23.005 45.4239C22.7622 45.3572 22.5141 45.2772 22.2647 45.1865C21.7859 45.0117 21.3123 44.797 20.8588 44.5475C20.4133 44.3034 19.9758 44.0207 19.5596 43.7072C19.2248 43.4538 18.8954 43.1763 18.5819 42.8802C18.2044 42.5241 17.839 42.1319 17.4908 41.7117C17.1494 41.2982 16.8212 40.8501 16.5144 40.3805C16.209 39.911 15.9195 39.4122 15.6541 38.896C15.3873 38.3811 15.1366 37.8329 14.9071 37.2673C14.6804 36.7084 14.4683 36.1148 14.2775 35.5013C14.0895 34.8984 13.9161 34.2594 13.764 33.6032C13.6119 32.9469 13.4812 32.2667 13.3719 31.5784C13.2745 30.9715 13.1918 30.3406 13.1264 29.7016C13.1064 29.5042 12.833 29.4802 12.7783 29.6683Z" fill="white"/>
<path d="M112.985 5.12732C112.985 7.88175 110.751 10.116 107.996 10.116C105.242 10.116 103.008 7.88309 103.008 5.12732C103.008 2.37289 105.242 0.138672 107.996 0.138672C110.752 0.138672 112.985 2.37156 112.985 5.12732Z" fill="white"/>
<path d="M111.87 25.2473C111.627 24.8698 111.159 24.6258 110.677 24.6258C110.22 24.6258 109.81 24.8405 109.552 25.214C109.256 25.6422 108.891 26.1504 108.467 26.7253C108.002 27.3548 107.5 27.9591 106.975 28.5206C106.453 29.0795 105.945 29.5651 105.462 29.9639C104.965 30.3774 104.642 30.4641 104.46 30.4641C104.332 30.4641 104.095 30.4641 104.041 29.8358C103.985 29.1782 104.083 28.3232 104.331 27.2948C104.584 26.2384 104.953 25.0646 105.423 23.8068C105.904 22.5276 106.385 21.3058 106.855 20.1746C107.343 18.9995 107.763 18.0231 108.136 17.1881C108.51 16.3571 108.743 15.8169 108.833 15.5808C109.132 14.8965 109.022 14.2216 108.518 13.6294C108.055 13.0865 107.435 12.705 106.676 12.4983C105.934 12.2955 105.126 12.2835 104.284 12.4636C103.383 12.657 102.668 13.1785 102.159 14.0135C101.711 14.7472 101.128 15.8983 100.427 17.4362C99.7224 18.9782 99.0422 20.6895 98.4059 22.5236C98.0191 23.636 97.6616 24.7671 97.3388 25.9049C96.8013 27.799 95.6955 29.481 94.1722 30.7268C93.6267 31.1724 93.0518 31.5925 92.4556 31.9833C92.1915 32.1567 91.926 32.3168 91.6592 32.4635C91.5752 32.5102 91.4872 32.4075 91.5445 32.3315C92.0047 31.7246 92.4582 31.0696 92.8997 30.3694C93.8108 28.9275 94.6404 27.2001 95.366 25.2367C96.133 23.1572 96.6145 21.2617 96.7973 19.5998C96.9813 17.9177 96.9173 16.4505 96.6065 15.238C96.2851 13.9855 95.7249 13.0011 94.9379 12.3102C94.1242 11.5966 93.1172 11.2351 91.9474 11.2351C90.5681 11.2351 89.2996 11.6006 88.1792 12.3195C87.4136 12.8117 86.7039 13.3613 86.061 13.9602C86.0077 14.0095 85.9636 14.0042 85.925 13.9428C85.7822 13.7147 85.5902 13.5013 85.3474 13.2999C84.8032 12.8504 84.1496 12.5503 83.4013 12.4049C82.6503 12.2622 81.8887 12.3142 81.1444 12.5583C80.3494 12.8197 79.7558 13.3586 79.381 14.1629C78.6621 15.7115 77.9031 17.5203 77.1241 19.5371C76.3478 21.5512 75.5902 23.656 74.8712 25.7942C74.7925 26.0316 74.7125 26.2691 74.6338 26.5052C74.0282 28.3286 72.8891 29.9279 71.3645 31.099C70.963 31.4071 70.5469 31.7019 70.12 31.982C69.8559 32.1554 69.5905 32.3155 69.3224 32.4622C69.2383 32.5089 69.1503 32.4062 69.209 32.3301C69.6692 31.7246 70.1227 31.0683 70.5642 30.368C71.4752 28.9275 72.3049 27.2001 73.0319 25.2353C73.7988 23.1558 74.2803 21.2591 74.4631 19.5984C74.6472 17.9164 74.5831 16.4478 74.2723 15.2367C73.9522 13.9855 73.3907 12.9998 72.6037 12.3089C71.7887 11.5952 70.783 11.2338 69.6132 11.2338C68.2326 11.2338 66.9641 11.5992 65.8437 12.3182C65.0767 12.8104 64.3671 13.3599 63.7255 13.9588C63.6721 14.0082 63.6281 14.0029 63.5894 13.9415C63.4467 13.7147 63.2533 13.5 63.0119 13.2999C62.469 12.8504 61.8141 12.5503 61.0658 12.4049C60.3148 12.2622 59.5518 12.3142 58.8102 12.5583C58.0152 12.8184 57.423 13.3586 57.0455 14.1643C56.3265 15.7155 55.5662 17.5243 54.7886 19.5384C54.059 21.4311 53.3494 23.3946 52.6758 25.3821C52.1676 26.8826 51.4073 28.0871 50.2721 29.1916C49.9787 29.477 49.6932 29.7345 49.4171 29.9639C48.9196 30.3774 48.5981 30.4641 48.4154 30.4641C48.2874 30.4641 48.0499 30.4641 47.9966 29.8358C47.9406 29.1796 48.0379 28.3259 48.286 27.2948C48.5395 26.2384 48.9063 25.0646 49.3785 23.8068C49.8533 22.5409 50.3348 21.3178 50.8097 20.1746C51.2899 19.0222 51.7207 18.0165 52.0915 17.1881C52.4717 16.3411 52.6984 15.8142 52.7865 15.5795C53.0866 14.8952 52.9772 14.2203 52.4717 13.628C52.0075 13.0838 51.3753 12.7023 50.5949 12.4956C49.832 12.2942 49.0263 12.2822 48.2047 12.4622C47.3243 12.6557 46.62 13.1772 46.1118 14.0095C46.0105 14.1749 45.9037 14.3563 45.7917 14.5577C45.7517 14.6298 45.6436 14.6138 45.6263 14.5324C45.5303 14.0776 45.3742 13.648 45.1608 13.2479C44.842 12.653 44.3685 12.1635 43.7562 11.7953C43.1333 11.4218 42.3437 11.2324 41.4073 11.2324C39.2011 11.2324 36.9629 12.2502 34.7567 14.259C32.5905 16.2317 30.7951 19.377 29.4185 23.612C28.7729 25.6542 28.3941 27.5416 28.2928 29.2222C28.19 30.9229 28.3274 32.3915 28.7009 33.5853C29.0851 34.8165 29.6973 35.7875 30.523 36.4731C31.374 37.1814 32.3971 37.5402 33.5642 37.5402C34.4272 37.5402 35.2502 37.3908 36.0105 37.0974C36.7481 36.8119 37.431 36.4465 38.042 36.0089C38.5115 35.6728 38.9503 35.2927 39.3478 34.8752C39.6306 34.5777 40.1308 34.6978 40.2468 35.0912C40.3776 35.5328 40.559 35.9262 40.7924 36.2677C41.3686 37.1121 42.281 37.5402 43.5028 37.5402C44.8567 37.5402 46.2252 37.032 47.5697 36.0303C48.1967 35.5634 48.8089 35.0552 49.4011 34.5084C49.5345 34.3856 49.7453 34.5164 49.6919 34.6911C49.3451 35.8435 49.0343 36.9106 48.7542 37.911C48.282 39.5944 47.8979 41.0443 47.6124 42.2208C47.2309 43.7987 47.1816 44.2269 47.1816 44.4256C47.1816 45.3927 47.4817 46.217 48.0753 46.8773C48.6475 47.5109 49.3118 47.967 50.0507 48.2298C50.5362 48.4019 51.0111 48.4899 51.4593 48.4899C51.7074 48.4899 51.9528 48.4632 52.1876 48.4099C52.7171 48.2898 53.3881 47.9377 53.5841 46.936L53.5868 46.916C53.6642 46.3891 53.8136 45.6755 54.0283 44.7938C54.2511 43.8787 54.5232 42.8383 54.8353 41.6992C55.1434 40.5668 55.4956 39.3049 55.9104 37.8417C56.1025 37.1654 56.3079 36.4571 56.528 35.7208C56.5733 35.5714 56.7747 35.5474 56.8534 35.6822C56.9508 35.8502 57.0588 36.0143 57.1789 36.1743C57.8525 37.0774 58.9276 37.5362 60.3748 37.5389C60.6656 37.5522 60.9564 37.5589 61.2418 37.5589C63.3693 37.5589 65.3661 37.1934 67.1789 36.4745C68.9115 35.7875 70.4975 34.9472 71.9114 33.9761C72.0501 33.8801 72.2315 34.0135 72.1822 34.1749C71.7767 35.5114 71.4099 36.7626 71.0884 37.9124C70.6136 39.6077 70.2294 41.0576 69.9466 42.2221C69.5651 43.8027 69.5158 44.2309 69.5158 44.427C69.5158 45.394 69.8159 46.2183 70.4095 46.8786C70.9817 47.5135 71.646 47.9684 72.3849 48.2311C72.8704 48.4032 73.344 48.4912 73.7935 48.4912C74.0416 48.4912 74.287 48.4646 74.5231 48.4112C75.0527 48.2912 75.7236 47.939 75.9197 46.9373L75.9237 46.9173C76.001 46.3891 76.1504 45.6741 76.3652 44.7951C76.5879 43.8814 76.8587 42.8397 77.1708 41.7005C77.4803 40.5628 77.8324 39.3009 78.2473 37.843C78.4393 37.1654 78.6461 36.4571 78.8635 35.7222C78.9075 35.5728 79.1103 35.5488 79.189 35.6835C79.2863 35.8516 79.3944 36.0169 79.5144 36.177C80.188 37.08 81.2631 37.5389 82.709 37.5416C82.9998 37.5549 83.2906 37.5616 83.576 37.5616C85.7022 37.5616 87.7003 37.1961 89.5144 36.4771C91.5432 35.6728 93.3773 34.6591 94.9659 33.4653C95.2353 33.2625 95.4994 33.0571 95.7555 32.849C95.8729 32.7543 96.0476 32.8397 96.045 32.9904C96.0436 33.0584 96.0436 33.1265 96.0436 33.1932C96.0436 34.463 96.3104 35.4981 96.8373 36.2704C97.4135 37.1147 98.3259 37.5429 99.5477 37.5429C100.9 37.5429 102.277 37.036 103.641 36.0356C104.938 35.0859 106.162 33.9628 107.281 32.697C108.385 31.4498 109.354 30.2066 110.164 29.0022C110.982 27.783 111.532 26.9493 111.847 26.4545C112.101 26.057 112.109 25.6168 111.87 25.2473ZM42.8465 18.7514C42.7505 19.6411 42.5611 20.6575 42.2876 21.7753C42.0129 22.8877 41.6354 24.0602 41.1672 25.2607C40.7004 26.4545 40.2028 27.5776 39.6879 28.598C39.1824 29.5957 38.6729 30.4454 38.17 31.127C37.6805 31.7886 37.2203 32.2821 36.8028 32.5943C36.4933 32.825 36.3226 32.8504 36.2626 32.8504C36.2359 32.8504 36.2119 32.845 36.1879 32.8343C36.1305 32.809 35.9385 32.6783 35.8371 32.07C35.7424 31.5138 35.7344 30.7949 35.8104 29.9345C35.8878 29.0595 36.0665 28.0538 36.3386 26.9467C36.6107 25.8382 36.9882 24.6658 37.4591 23.4626C37.9326 22.2528 38.4314 21.1297 38.9397 20.124C39.4425 19.1276 39.9534 18.2672 40.4589 17.5656C40.9458 16.8893 41.4046 16.3878 41.8235 16.0757C42.1329 15.8449 42.305 15.8196 42.3637 15.8196C42.3917 15.8196 42.4144 15.8249 42.4357 15.8343C42.4944 15.8609 42.6971 15.997 42.8212 16.6132C42.9332 17.1588 42.9412 17.8791 42.8465 18.7514ZM67.0121 18.8048C66.8561 19.6825 66.608 20.6922 66.2758 21.8086C65.9397 22.9291 65.5115 24.1042 65.0087 25.2914C64.4578 26.4972 63.8896 27.6216 63.32 28.634C62.7531 29.6371 62.1915 30.5001 61.6487 31.199C61.1218 31.8793 60.6323 32.3835 60.1934 32.6956C59.864 32.9317 59.6825 32.9571 59.6199 32.9571C59.5905 32.9571 59.5665 32.9531 59.5412 32.9411C59.4865 32.917 59.3024 32.7903 59.2224 32.1901C59.1477 31.6445 59.1877 30.9229 59.3397 30.0479C59.4958 29.1516 59.7439 28.1311 60.0774 27.0174C60.4082 25.9076 60.8363 24.7325 61.3485 23.524C61.8581 22.3222 62.413 21.2031 62.9999 20.1987C63.5894 19.1903 64.1603 18.3366 64.6992 17.6603C65.2274 16.9974 65.7183 16.5012 66.1585 16.1864C66.4893 15.9503 66.672 15.925 66.7347 15.925C66.764 15.925 66.7894 15.9303 66.8107 15.9396C66.8654 15.9636 67.0495 16.0917 67.1308 16.6906C67.2029 17.2388 67.1629 17.9511 67.0121 18.8048ZM89.3463 18.8048C89.1903 19.6811 88.9422 20.6922 88.6087 21.8086C88.2739 22.9224 87.8471 24.0989 87.3415 25.2914C86.792 26.4945 86.2238 27.6189 85.6515 28.634C85.086 29.6371 84.5244 30.5001 83.9815 31.199C83.4533 31.8806 82.9638 32.3835 82.5263 32.6956C82.1968 32.9317 82.0141 32.9571 81.9514 32.9571C81.922 32.9571 81.898 32.9531 81.8727 32.9411C81.818 32.917 81.6339 32.7903 81.5539 32.1914C81.4792 31.6432 81.5192 30.9229 81.6713 30.0492C81.8273 29.1489 82.0754 28.1298 82.4076 27.0187C82.7384 25.9103 83.1652 24.7351 83.6787 23.5253C84.1869 22.3262 84.7418 21.2071 85.3301 20.2C85.917 19.1929 86.4892 18.3392 87.0294 17.6616C87.5549 17 88.0458 16.5052 88.4873 16.1877C88.8181 15.9516 89.0009 15.9263 89.0635 15.9263C89.0929 15.9263 89.1169 15.9316 89.1396 15.941C89.1943 15.965 89.3783 16.093 89.4597 16.6919C89.5371 17.2415 89.4984 17.9511 89.3463 18.8048Z" fill="white"/>
</svg>
