<svg width="171" height="39" viewBox="0 0 171 39" fill="none" xmlns="http://www.w3.org/2000/svg">
<path fill-rule="evenodd" clip-rule="evenodd" d="M19.7052 0.192383C30.2473 0.192383 38.7528 8.74631 38.7528 19.2588C38.7528 29.7714 30.2473 38.3653 19.7052 38.3653C9.16321 38.3653 0.657715 29.8114 0.657715 19.2588C0.657715 8.70634 9.20314 0.192383 19.7052 0.192383ZM19.7052 3.8298C28.2507 3.8298 35.1589 10.7449 35.1589 19.2988C35.1589 24.9748 32.0841 29.9712 27.492 32.6493C28.4503 29.2917 28.8496 25.8542 28.6899 21.897C29.6882 22.1768 30.2473 22.3367 31.2456 22.6564C30.0875 19.7385 28.8496 17.1004 27.2124 14.4223C25.7749 17.1803 23.8182 19.7785 21.8616 21.817L25.0561 21.6172C22.3008 26.5337 18.4274 28.932 13.5158 29.6115C12.3977 24.0554 13.2363 14.9819 19.5056 10.7449L20.1445 13.7827C21.3824 11.8241 23.7783 9.22597 25.5752 7.42725C22.7401 6.30804 19.4656 5.9483 16.2711 6.54787C16.5306 6.76771 16.8202 7.01754 17.1097 7.26736C17.3992 7.51718 17.6887 7.76701 17.9482 7.98685C10.8803 10.9847 7.00689 15.9012 4.45125 21.6172C4.33145 20.8577 4.29152 20.0583 4.29152 19.2988C4.29152 10.7449 11.1997 3.8298 19.7052 3.8298Z" fill="white"/>
<path d="M55.7635 28.5323V29.3717H53.5273V30.9705H56.0031V31.8099H52.5689V26.2539H55.9631V27.0933H53.4874V28.4923C54.2461 28.5323 55.0048 28.5323 55.7635 28.5323Z" fill="white"/>
<path d="M48.6955 31.77H45.3013V26.2539H46.2597V30.9306H48.7355C48.6955 31.2104 48.6955 31.4902 48.6955 31.77Z" fill="white"/>
<path d="M66.8645 26.2939L65.5867 27.7728C65.5069 27.7328 65.427 27.7029 65.3471 27.6729C65.2673 27.6429 65.1874 27.6129 65.1075 27.573L65.5867 26.2939H66.8645Z" fill="white"/>
<path d="M69.1407 27.2932C69.0209 27.3731 68.941 27.533 68.941 27.8128C68.941 28.2924 69.1007 28.4523 69.54 28.5323L70.4185 28.6122C71.297 28.6922 71.8161 29.1718 71.8161 30.1311V30.4509C71.8161 30.6907 71.7762 30.9306 71.6963 31.1304C71.6164 31.3303 71.4966 31.4902 71.3369 31.6101C71.1373 31.77 70.8977 31.8099 70.6581 31.8499C70.4185 31.8899 70.139 31.8899 69.8994 31.8899H68.1024V30.9306H70.2987C70.698 30.9306 70.9376 30.8506 70.8977 30.2511C70.8977 29.9713 70.8178 29.8114 70.7379 29.7314C70.6181 29.6515 70.4584 29.6115 70.2588 29.5715L69.3403 29.4916C69.0209 29.4516 68.6615 29.3717 68.4219 29.1319C68.1823 28.892 68.0226 28.5323 68.0226 27.9327V27.6529C68.0625 27.0533 68.2622 26.6936 68.6215 26.4937C68.9809 26.2939 69.4601 26.2539 69.9393 26.2539H71.5765V27.2132H69.8195C69.5001 27.2132 69.2605 27.2132 69.1407 27.2932Z" fill="white"/>
<path fill-rule="evenodd" clip-rule="evenodd" d="M80.2817 31.77V26.2539H82.6776C82.8772 26.2539 83.1568 26.3338 83.3964 26.4937C83.6359 26.6536 83.7957 26.9334 83.7957 27.3731V28.0526C83.7957 28.5323 83.5561 28.7721 83.3964 28.932C83.5561 29.0519 83.7957 29.3317 83.7957 29.7714V30.6508C83.7957 31.2503 83.2766 31.77 82.6776 31.77H80.2817ZM82.7574 29.4516C82.7175 29.4116 82.5977 29.3317 82.5179 29.3317H81.2001V30.8906H82.5179C82.5977 30.8906 82.6776 30.8506 82.7574 30.7707C82.7974 30.7307 82.8373 30.6508 82.8373 30.5309V29.6915C82.8772 29.6515 82.8373 29.5316 82.7574 29.4516ZM82.7974 27.2132C82.7175 27.1333 82.6376 27.0933 82.5179 27.0933H81.2001V28.4923H82.5578C82.6376 28.4923 82.7175 28.4523 82.7974 28.3724C82.8772 28.2924 82.9172 28.1725 82.9172 28.0926V27.453C82.8906 27.4264 82.8639 27.3642 82.8373 27.302C82.824 27.271 82.8107 27.2399 82.7974 27.2132Z" fill="white"/>
<path d="M117.338 28.5323H119.575V29.3717H117.338V30.9705H119.814V31.8099H116.42V26.2539H119.814V27.0933H117.338V28.5323Z" fill="white"/>
<path d="M112.107 31.77H109.033V26.2539H109.991V30.9306H112.107V31.77Z" fill="white"/>
<path d="M105.359 27.1333H103.961V31.77H103.003V27.1333H101.605V26.2939H105.359V27.1333Z" fill="white"/>
<path d="M97.8916 27.1333H96.494V31.77H95.5357V27.1333H94.138V26.2939H97.8916V27.1333Z" fill="white"/>
<path fill-rule="evenodd" clip-rule="evenodd" d="M88.268 30.6108L87.9885 31.8099H86.9902L88.5076 26.2939H89.7455L91.2629 31.8099H90.2646L89.9452 30.6108H88.268ZM89.6657 29.7714L89.0667 27.3731L88.4677 29.7714H89.6657Z" fill="white"/>
<path d="M63.1109 27.1333H61.7133V31.77H60.755V27.1333H59.3573V26.2939H63.1109V27.1333Z" fill="white"/>
<path d="M50.6129 18.9791L49.2552 11.2246L47.8976 18.9791H44.8627L41.5085 6.78777H44.4634L46.3003 14.7021L47.5781 6.78777H50.9324L52.2102 14.7021L54.0471 6.78777H57.002L53.6478 18.9791H50.6129Z" fill="white"/>
<path fill-rule="evenodd" clip-rule="evenodd" d="M58.8791 18.9791L59.4382 16.4609H62.5129L63.072 18.9791H65.8273L62.473 6.78777H59.4382L56.1238 18.9791H58.8791ZM60.9955 9.78564L62.0337 14.3824H59.9573L60.9955 9.78564Z" fill="white"/>
<path fill-rule="evenodd" clip-rule="evenodd" d="M71.5368 14.4223H69.8597V18.9791H67.2641V6.78773H71.8563C71.9703 6.78773 72.0832 6.7866 72.1951 6.78548C72.7497 6.77994 73.2814 6.77462 73.8129 6.90764C74.8112 7.14747 75.5699 7.98687 75.5699 9.10608V11.8241C75.5699 12.7835 74.9709 13.5829 74.0525 13.9027L76.2088 18.9791H73.174L71.5368 14.4223ZM72.0559 9.14605H69.8597V12.024H72.0559C72.575 12.024 72.9743 11.7442 72.9743 11.1446V9.94548C72.9743 9.38588 72.5351 9.14605 72.0559 9.14605Z" fill="white"/>
<path d="M83.3565 19.0991C84.6343 19.0991 85.393 18.7393 86.0319 18.2597V11.7843H81.9189V14.1026H83.4363V16.421C83.1967 16.4609 82.9172 16.5009 82.6377 16.5009H81.5994C80.122 16.5009 79.7626 15.4616 79.7626 14.3424V11.3046C79.7626 10.1454 80.2817 9.30601 81.6793 9.30601H85.8322V6.70786H81.5196C79.1237 6.70786 77.4066 8.14684 77.167 10.6251C77.167 10.725 77.157 10.8249 77.147 10.9249C77.1371 11.0248 77.1271 11.1247 77.1271 11.2247V14.7422C77.1271 17.3003 78.8841 19.0991 81.28 19.0991H83.3565Z" fill="white"/>
<path fill-rule="evenodd" clip-rule="evenodd" d="M90.1845 16.4609L89.6254 18.9791H86.8701L90.1845 6.78777H93.2193L96.5736 18.9791H93.8183L93.2592 16.4609H90.1845ZM92.7401 14.3824L91.7019 9.78564L90.6637 14.3824H92.7401Z" fill="white"/>
<path d="M106.677 11.5044V18.9791H109.193V6.78777H105.919L103.483 15.8613L101.087 6.78777H97.8126V18.9791H100.288V11.5044L102.165 18.9791H104.801L106.677 11.5044Z" fill="white"/>
<path d="M113.944 6.78777V18.9791H111.348V6.78777H113.944Z" fill="white"/>
<path d="M125.086 18.9791V6.78777H122.57V14.0626L118.657 6.78777H116.101V18.9791H118.577V11.7043L122.53 18.9791H125.086Z" fill="white"/>
<path d="M151.002 6.78777V18.9791H148.446L144.493 11.7043V18.9791H142.017V6.78777H144.573L148.486 14.0626V6.78777H151.002Z" fill="white"/>
<path d="M160.266 11.5044H155.594V9.14609H160.745V6.78777H152.998V18.9791H160.745V16.6208H155.594V13.8228H160.266V11.5044Z" fill="white"/>
<path d="M170.528 6.78777V9.14609H167.613V18.9791H165.017V9.14609H162.062V6.78777H170.528Z" fill="white"/>
<path d="M132.832 19.0991C134.11 19.0991 134.868 18.7393 135.507 18.2597V11.7843H131.394V14.1026H132.912V16.421C132.672 16.4609 132.393 16.5009 132.113 16.5009H131.075C129.597 16.5009 129.238 15.4616 129.238 14.3424V11.3046C129.238 10.1454 129.757 9.30601 131.155 9.30601H135.308V6.70786H130.995C128.599 6.70786 126.882 8.14684 126.642 10.6251C126.642 10.725 126.632 10.8249 126.622 10.9249C126.612 11.0248 126.602 11.1247 126.602 11.2247V14.7422C126.602 17.3003 128.359 19.0991 130.755 19.0991H132.832Z" fill="white"/>
<path d="M140.1 16.7007H137.584V19.179H140.1V16.7007Z" fill="white"/>
</svg>
