<svg width="181" height="37" viewBox="0 0 181 37" fill="none" xmlns="http://www.w3.org/2000/svg">
<g clip-path="url(#clip0_3604_16096)">
<path d="M21.68 7.46082L11.24 14.1209L21.68 20.7809L11.24 27.4409L0.800049 20.7449L11.24 14.0849L0.800049 7.46082L11.24 0.800781L21.68 7.46082ZM11.186 29.5829L21.626 22.9229L32.066 29.5829L21.626 36.243L11.186 29.5829ZM21.68 20.7449L32.1201 14.0849L21.68 7.46082L32.066 0.800781L42.506 7.46082L32.066 14.1209L42.506 20.7809L32.066 27.4409L21.68 20.7449Z" fill="white"/>
<path d="M50.696 7.46127H59.138C64.52 7.46127 68.966 10.5753 68.966 17.6853V19.1793C68.966 26.3434 64.808 29.5654 59.3 29.5654H50.696V7.46127ZM55.412 11.4753V25.5334H59.03C62.09 25.5334 64.142 23.5354 64.142 19.0893V17.9193C64.142 13.4733 61.982 11.4753 58.868 11.4753H55.412ZM71.468 11.6913H75.248L75.86 15.8493C76.58 13.0233 78.416 11.5113 81.746 11.5113H82.916V16.2813H80.972C77.138 16.2813 76.202 17.6133 76.202 21.3933V29.6194H71.54V11.6913H71.468ZM83.852 21.0153V20.5113C83.852 14.5173 87.686 11.2413 92.906 11.2413C98.234 11.2413 101.96 14.5173 101.96 20.5113V21.0153C101.96 26.9014 98.342 30.0694 92.906 30.0694C87.128 30.0154 83.852 26.9194 83.852 21.0153ZM97.19 20.9613V20.5113C97.19 17.1813 95.516 15.1833 92.852 15.1833C90.242 15.1833 88.514 17.0193 88.514 20.5113V20.9613C88.514 24.1834 90.188 26.0194 92.852 26.0194C95.516 25.9654 97.19 24.1834 97.19 20.9613ZM104.408 11.6913H108.296L108.746 15.0753C109.682 12.8073 111.68 11.2413 114.632 11.2413C119.186 11.2413 122.192 14.5173 122.192 20.5833V21.0873C122.192 26.9734 118.862 30.0874 114.632 30.0874C111.806 30.0874 109.862 28.8094 108.908 26.7574V35.8114H104.354L104.408 11.6913ZM117.458 20.9613V20.5653C117.458 17.0013 115.622 15.2373 113.174 15.2373C110.564 15.2373 108.836 17.2353 108.836 20.5653V20.9073C108.836 24.0754 110.51 26.0734 113.12 26.0734C115.802 26.0194 117.458 24.3094 117.458 20.9613ZM129.086 26.3074L128.69 29.5834H124.694V5.69727H129.248V14.8593C130.256 12.5193 132.254 11.2413 135.08 11.2413C139.364 11.2953 142.532 14.2473 142.532 20.1873V20.7453C142.532 26.6854 139.526 30.0874 134.972 30.0874C131.966 30.0154 130.022 28.6294 129.086 26.3074ZM137.744 20.7453V20.2953C137.744 17.0193 135.962 15.1833 133.46 15.1833C130.904 15.1833 129.122 17.2353 129.122 20.3493V20.7453C129.122 24.0754 130.85 26.0194 133.406 26.0194C136.142 26.0194 137.744 24.3094 137.744 20.7453ZM144.53 21.0153V20.5113C144.53 14.5173 148.364 11.2413 153.584 11.2413C158.912 11.2413 162.638 14.5173 162.638 20.5113V21.0153C162.638 26.9014 158.966 30.0694 153.584 30.0694C147.806 30.0154 144.53 26.9194 144.53 21.0153ZM157.904 20.9613V20.5113C157.904 17.1813 156.23 15.1833 153.566 15.1833C150.956 15.1833 149.228 17.0193 149.228 20.5113V20.9613C149.228 24.1834 150.902 26.0194 153.566 26.0194C156.248 25.9654 157.904 24.1834 157.904 20.9613ZM168.74 20.2953L162.458 11.6913H167.84L171.458 17.0733L175.13 11.6913H180.458L174.086 20.2413L180.8 29.5834H175.526L171.422 23.6434L167.426 29.5834H161.918L168.74 20.2953Z" fill="white"/>
</g>
<defs>
<clipPath id="clip0_3604_16096">
<rect width="180" height="35.4422" fill="white" transform="translate(0.800049 0.801758)"/>
</clipPath>
</defs>
</svg>
