<svg width="59" height="12" viewBox="0 0 59 12" fill="none" xmlns="http://www.w3.org/2000/svg">
<path d="M2.69433 4.76919C2.419 4.76919 2.17317 4.78886 1.95683 4.83802C1.75033 4.88719 1.57333 4.93636 1.43567 4.98552C1.298 5.04452 1.18983 5.09369 1.10133 5.15269C1.02267 5.21169 0.9735 5.24119 0.953833 5.26086V11.4952H0V4.81836C0.0295 4.79869 0.0983333 4.73969 0.226167 4.65119C0.344167 4.55286 0.521167 4.45452 0.747333 4.35619C0.9735 4.24802 1.24883 4.15952 1.5635 4.07102C1.888 3.98252 2.25183 3.94319 2.67467 3.94319C3.16633 3.94319 3.53017 3.97269 3.78583 4.04152C4.03167 4.11036 4.20867 4.17919 4.31683 4.25786C4.47417 4.35619 4.543 4.49386 4.543 4.67086C4.543 4.77902 4.52333 4.87736 4.47417 4.96586C4.425 5.05436 4.37583 5.12319 4.32667 5.16252C4.20867 5.08386 4.02183 4.99536 3.7465 4.90686C3.47117 4.81836 3.127 4.76919 2.69433 4.76919ZM5.99833 7.59136C6.00817 7.24719 6.077 6.90302 6.195 6.55886C6.313 6.21469 6.49 5.90986 6.70633 5.64436C6.92267 5.37886 7.198 5.16252 7.5225 4.98552C7.847 4.81836 8.22067 4.72986 8.6435 4.72986C9.01717 4.72986 9.33183 4.77902 9.59733 4.88719C9.86283 4.99536 10.0693 5.12319 10.2267 5.30019C10.384 5.46736 10.502 5.66402 10.5708 5.89019C10.6397 6.11636 10.679 6.34252 10.679 6.57852C10.679 6.99152 10.5708 7.26686 10.3742 7.39469C10.1677 7.52252 9.87267 7.59136 9.48917 7.59136H5.99833ZM9.8825 8.38786C10.4922 8.38786 10.9445 8.24036 11.21 7.94536C11.4853 7.65036 11.623 7.23736 11.623 6.70636C11.623 5.83119 11.3673 5.15269 10.856 4.67086C10.3447 4.18902 9.60717 3.94319 8.62383 3.94319C8.10267 3.94319 7.62083 4.04152 7.1685 4.23819C6.71617 4.43486 6.33267 4.71019 5.99833 5.07402C5.67383 5.42802 5.41817 5.86069 5.23133 6.35236C5.0445 6.84402 4.94617 7.39469 4.94617 7.98469C4.94617 8.60419 5.0445 9.13519 5.23133 9.59736C5.428 10.0595 5.68367 10.443 6.00817 10.7577C6.33267 11.0724 6.71617 11.3084 7.15867 11.4657C7.60117 11.623 8.07317 11.7017 8.5845 11.7017C8.909 11.7017 9.21383 11.6722 9.499 11.623C9.78417 11.564 10.0398 11.505 10.266 11.4264C10.4922 11.3477 10.679 11.269 10.8462 11.1904C11.0035 11.1019 11.1215 11.0429 11.2002 10.9937L10.8167 10.266C10.6397 10.3742 10.3742 10.4922 10.0005 10.6299C9.62683 10.7675 9.204 10.8265 8.732 10.8265C7.92567 10.8265 7.29633 10.6299 6.844 10.2365C6.39167 9.84319 6.11633 9.22369 6.018 8.38786H9.8825ZM12.6752 5.49686C12.803 5.81152 12.98 6.22452 13.1963 6.73586C13.4225 7.23736 13.6683 7.77819 13.9338 8.33869C14.1993 8.89919 14.4747 9.46952 14.75 10.03C15.0253 10.5905 15.281 11.0822 15.4973 11.4952H16.5495C16.7167 11.1904 16.8937 10.8265 17.1002 10.4234C17.2968 10.0202 17.5033 9.58752 17.7197 9.14502C17.9262 8.70252 18.1425 8.24036 18.349 7.77819C18.5555 7.31602 18.7522 6.86369 18.9292 6.44086C19.1062 6.01802 19.2635 5.62469 19.4012 5.27069C19.5388 4.91669 19.647 4.61186 19.706 4.37586C19.6863 4.35619 19.6273 4.31686 19.5388 4.24802C19.4503 4.17919 19.3323 4.14969 19.1848 4.14969C19.0177 4.14969 18.9095 4.18902 18.8407 4.25786C18.7718 4.33652 18.7227 4.40536 18.6932 4.47419C18.5162 4.91669 18.3195 5.42802 18.0933 5.98852C17.8672 6.54902 17.6213 7.11936 17.3853 7.68969C17.1395 8.26002 16.9035 8.80086 16.6675 9.32202C16.4315 9.83336 16.225 10.2759 16.0382 10.6299C15.8513 10.2464 15.6547 9.80386 15.4187 9.31219C15.1925 8.82052 14.9467 8.29936 14.691 7.73886C14.4353 7.18819 14.1895 6.60802 13.9338 6.00819C13.688 5.40836 13.452 4.80852 13.2455 4.21852C13.2258 4.20869 13.1865 4.18902 13.1275 4.16936C13.0685 4.14969 12.98 4.13986 12.8718 4.13986C12.6948 4.13986 12.5768 4.18902 12.4982 4.27752C12.4195 4.37586 12.3802 4.48402 12.3802 4.63152C12.3802 4.73969 12.4097 4.88719 12.4785 5.06419C12.5768 5.24119 12.626 5.38869 12.6752 5.49686ZM21.2597 7.59136C21.2695 7.24719 21.3383 6.90302 21.4563 6.55886C21.5743 6.21469 21.7513 5.90986 21.9677 5.64436C22.184 5.37886 22.4593 5.16252 22.7838 4.98552C23.1083 4.81836 23.482 4.72986 23.9048 4.72986C24.2785 4.72986 24.5932 4.77902 24.8587 4.88719C25.1242 4.99536 25.3307 5.12319 25.488 5.30019C25.6453 5.46736 25.7633 5.66402 25.8322 5.89019C25.901 6.11636 25.9403 6.34252 25.9403 6.57852C25.9403 6.99152 25.8322 7.26686 25.6355 7.39469C25.429 7.52252 25.134 7.59136 24.7505 7.59136H21.2597ZM25.1438 8.38786C25.7535 8.38786 26.2058 8.24036 26.4713 7.94536C26.7467 7.65036 26.8843 7.23736 26.8843 6.70636C26.8843 5.83119 26.6287 5.15269 26.1173 4.67086C25.606 4.18902 24.8685 3.94319 23.8852 3.94319C23.364 3.94319 22.8822 4.04152 22.4298 4.23819C21.9775 4.43486 21.594 4.71019 21.2597 5.07402C20.9352 5.42802 20.6795 5.86069 20.4927 6.35236C20.3058 6.84402 20.2075 7.39469 20.2075 7.98469C20.2075 8.60419 20.3058 9.13519 20.4927 9.59736C20.6893 10.0595 20.945 10.443 21.2695 10.7577C21.594 11.0724 21.9775 11.3084 22.42 11.4657C22.8625 11.623 23.3345 11.7017 23.8458 11.7017C24.1703 11.7017 24.4752 11.6722 24.7603 11.623C25.0455 11.564 25.3012 11.505 25.5273 11.4264C25.7535 11.3477 25.9403 11.269 26.1075 11.1904C26.2648 11.1019 26.3828 11.0429 26.4615 10.9937L26.078 10.266C25.901 10.3742 25.6355 10.4922 25.2618 10.6299C24.8882 10.7675 24.4653 10.8265 23.9933 10.8265C23.187 10.8265 22.5577 10.6299 22.1053 10.2365C21.653 9.84319 21.3777 9.22369 21.2793 8.38786H25.1438ZM34.9673 11.4952V6.94236C34.9673 6.50969 34.8887 6.10652 34.7412 5.73286C34.5838 5.36902 34.3675 5.04452 34.0823 4.77902C33.7972 4.51352 33.4432 4.30702 33.0302 4.14969C32.6172 4.00219 32.1452 3.92352 31.624 3.92352C31.1815 3.92352 30.7783 3.95302 30.4145 4.00219C30.0507 4.06119 29.736 4.12019 29.4607 4.18902C29.1952 4.25786 28.9788 4.32669 28.8215 4.38569C28.6642 4.45452 28.5658 4.48402 28.5363 4.49386V11.4657H29.4902V5.14286C29.5197 5.13302 29.5885 5.10352 29.6868 5.06419C29.7852 5.01502 29.9228 4.97569 30.0998 4.92652C30.2768 4.87736 30.4735 4.83802 30.7095 4.80852C30.9455 4.76919 31.2012 4.75936 31.4962 4.75936C32.391 4.75936 33.0302 4.98552 33.4333 5.43786C33.8267 5.89019 34.0332 6.52936 34.0332 7.36519V11.4657H34.9673V11.4952ZM37.6813 7.59136C37.6912 7.24719 37.76 6.90302 37.878 6.55886C37.996 6.21469 38.173 5.90986 38.3893 5.64436C38.6057 5.37886 38.881 5.16252 39.2055 4.98552C39.53 4.81836 39.9037 4.72986 40.3265 4.72986C40.7002 4.72986 41.0148 4.77902 41.2803 4.88719C41.5458 4.99536 41.7523 5.12319 41.9097 5.30019C42.067 5.46736 42.185 5.66402 42.2538 5.89019C42.3227 6.11636 42.362 6.34252 42.362 6.57852C42.362 6.99152 42.2538 7.26686 42.0572 7.39469C41.8507 7.52252 41.5557 7.59136 41.1722 7.59136H37.6813ZM41.5655 8.38786C42.1752 8.38786 42.6275 8.24036 42.893 7.94536C43.1683 7.65036 43.306 7.23736 43.306 6.70636C43.306 5.83119 43.0503 5.15269 42.539 4.67086C42.0277 4.18902 41.2902 3.94319 40.3068 3.94319C39.7857 3.94319 39.3038 4.04152 38.8515 4.23819C38.3992 4.43486 38.0157 4.71019 37.6813 5.07402C37.3568 5.42802 37.1012 5.86069 36.9143 6.35236C36.7275 6.84402 36.6292 7.39469 36.6292 7.98469C36.6292 8.60419 36.7275 9.13519 36.9143 9.59736C37.111 10.0595 37.3667 10.443 37.6912 10.7577C38.0157 11.0724 38.3992 11.3084 38.8417 11.4657C39.2842 11.623 39.7562 11.7017 40.2675 11.7017C40.592 11.7017 40.8968 11.6722 41.182 11.623C41.4672 11.564 41.7228 11.505 41.949 11.4264C42.1752 11.3477 42.362 11.269 42.5292 11.1904C42.6865 11.1019 42.8045 11.0429 42.8832 10.9937L42.4997 10.266C42.3227 10.3742 42.0572 10.4922 41.6835 10.6299C41.3098 10.7675 40.887 10.8265 40.415 10.8265C39.6087 10.8265 38.9793 10.6299 38.527 10.2365C38.0747 9.84319 37.7993 9.22369 37.701 8.38786H41.5655ZM47.6425 4.76919C48.0752 4.76919 48.4292 4.81836 48.7045 4.90686C48.9798 4.99536 49.1765 5.08386 49.2847 5.16252C49.3338 5.12319 49.383 5.05436 49.4322 4.96586C49.4813 4.87736 49.501 4.77902 49.501 4.67086C49.501 4.49386 49.4223 4.35619 49.2748 4.25786C49.1667 4.17919 48.9897 4.11036 48.7438 4.04152C48.498 3.97269 48.1243 3.94319 47.6327 3.94319C47.2098 3.94319 46.8362 3.98252 46.5215 4.07102C46.197 4.15952 45.9217 4.24802 45.7053 4.35619C45.4792 4.46436 45.312 4.56269 45.1842 4.65119C45.0662 4.74952 44.9875 4.79869 44.958 4.81836V11.4952H45.9118V5.26086C45.9315 5.24119 45.9807 5.20186 46.0593 5.15269C46.138 5.09369 46.256 5.04452 46.3937 4.98552C46.5313 4.92652 46.7083 4.87736 46.9148 4.83802C47.1213 4.78886 47.3672 4.76919 47.6425 4.76919ZM55.3912 10.7184C55.283 10.7577 55.0765 10.8069 54.7618 10.856C54.4472 10.9052 53.985 10.9347 53.3655 10.9347C52.4707 10.9347 51.8512 10.797 51.507 10.5315C51.1628 10.266 50.9858 9.86286 50.9858 9.32202C50.9858 8.71236 51.1923 8.27969 51.6152 8.04369C52.038 7.80769 52.6083 7.68969 53.3262 7.68969C53.5228 7.68969 53.7392 7.69952 53.9653 7.70936C54.1915 7.71919 54.398 7.72902 54.5947 7.74869C54.7815 7.75852 54.9585 7.77819 55.0962 7.79786C55.2437 7.81752 55.3322 7.82736 55.3813 7.83719V10.7184H55.3912ZM52.9033 4.74952C53.7982 4.74952 54.4373 4.93636 54.8208 5.31002C55.2043 5.68369 55.401 6.22452 55.401 6.94236V6.97186C55.3125 6.97186 55.1945 6.97186 55.0372 6.96202C54.8798 6.95219 54.7127 6.94236 54.516 6.93252C54.3193 6.92269 54.1227 6.91286 53.8965 6.90302C53.6802 6.89319 53.4638 6.89319 53.2475 6.89319C52.628 6.89319 52.1068 6.95219 51.684 7.08002C51.271 7.20786 50.9367 7.37502 50.6908 7.60119C50.445 7.82736 50.2778 8.08302 50.1697 8.37802C50.0713 8.67302 50.0222 8.98769 50.0222 9.33186C50.0222 9.59736 50.0517 9.87269 50.1205 10.1579C50.1893 10.443 50.3368 10.6987 50.563 10.9249C50.7892 11.151 51.1235 11.3379 51.566 11.4854C51.9987 11.6329 52.5887 11.7115 53.3262 11.7115C54.103 11.7115 54.7225 11.682 55.1945 11.6329C55.6665 11.5739 56.0402 11.5247 56.3155 11.4755V7.03086C56.3155 5.94919 56.0205 5.16252 55.4403 4.68069C54.8503 4.19886 53.985 3.95302 52.8345 3.95302C52.274 3.95302 51.8512 4.00219 51.566 4.10052C51.2808 4.19886 51.0842 4.28736 50.9858 4.36602C50.9072 4.42502 50.8482 4.49386 50.7892 4.57252C50.74 4.65119 50.7105 4.74952 50.7105 4.85769C50.7105 4.96586 50.74 5.06419 50.7892 5.16252C50.8383 5.26086 50.8973 5.32969 50.9662 5.37886C51.094 5.26086 51.3005 5.13302 51.6053 4.98552C51.9397 4.82819 52.3625 4.74952 52.9033 4.74952ZM57.7315 10.3742H56.9547V10.5119H57.2693V11.4854H57.4168V10.5119H57.7315V10.3742ZM59 10.3742H58.7837L58.4592 11.2494L58.1347 10.3742H57.9183V11.4854H58.056V10.561L58.4002 11.4854H58.4985L58.8427 10.561V11.4854H58.9902V10.3742H59Z" fill="white"/>
<path d="M36.521 0C36.3539 0.304833 35.9999 1.1505 35.931 2.655V5.38867C35.931 5.3985 35.9409 5.41817 35.9409 5.428C36.1572 4.99533 36.4325 4.602 36.7472 4.25783C37.2094 3.75633 37.76 3.35317 38.3992 3.07783C39.0285 2.8025 39.707 2.66483 40.415 2.66483C40.4544 2.66483 40.4839 2.66483 40.5232 2.66483C39.6874 1.2095 38.232 0.196667 36.521 0Z" fill="white"/>
<path d="M35.3509 0C35.518 0.304833 35.872 1.1505 35.9409 2.655V5.38867C35.9409 5.3985 35.931 5.41817 35.931 5.428C35.7147 4.99533 35.4394 4.602 35.1247 4.25783C34.6625 3.75633 34.1119 3.35317 33.4727 3.07783C32.8434 2.8025 32.1649 2.66483 31.4569 2.66483C31.4175 2.66483 31.388 2.66483 31.3487 2.66483C32.1845 1.2095 33.6497 0.196667 35.3509 0Z" fill="white"/>
</svg>
