<svg width="187" height="29" viewBox="0 0 187 29" fill="none" xmlns="http://www.w3.org/2000/svg">
<g clip-path="url(#clip0_7615_16768)">
<mask id="mask0_7615_16768" style="mask-type:luminance" maskUnits="userSpaceOnUse" x="-15" y="-15" width="217" height="58">
<path d="M-14.3215 -14.3248H201.334V42.9619H-14.3215V-14.3248Z" fill="white"/>
</mask>
<g mask="url(#mask0_7615_16768)">
<path d="M177.543 12.5795V16.4784H180.283V20.3467C180.292 20.6923 180.273 21.0651 180.214 21.3634C180.105 22.085 179.419 23.3136 177.474 23.3136C175.541 23.3136 174.868 22.085 174.751 21.3634C174.702 21.0651 174.681 20.6923 174.681 20.3467V8.12864C174.681 7.69647 174.71 7.22344 174.802 6.86541C174.935 6.21422 175.512 4.93005 177.46 4.93005C179.505 4.93005 180.015 6.28391 180.132 6.86541C180.209 7.25056 180.214 7.89659 180.214 7.89659V9.38021H186.946V8.50315C186.946 8.50315 186.977 7.58799 186.895 6.73394C186.389 1.7191 182.257 0.132501 177.519 0.132501C172.773 0.132501 168.725 1.73386 168.135 6.73394C168.082 7.19117 168 8.01365 168 8.50315V19.7425C168 20.232 168.016 20.611 168.107 21.5056C168.546 26.3824 172.773 28.1111 177.5 28.1111C182.257 28.1111 186.455 26.3824 186.902 21.5056C186.981 20.611 186.989 20.232 187 19.7425V12.5795H177.543ZM131.121 0.851653H124.36V20.6285C124.371 20.9731 124.36 21.3603 124.301 21.6442C124.16 22.3081 123.597 23.5858 121.732 23.5858C119.89 23.5858 119.313 22.3081 119.183 21.6442C119.115 21.3603 119.106 20.9731 119.115 20.6285V0.851653H112.356V20.0147C112.347 20.5087 112.386 21.5179 112.415 21.7822C112.882 26.7758 116.817 28.397 121.732 28.397C126.656 28.397 130.589 26.7758 131.064 21.7822C131.101 21.5179 131.15 20.5087 131.121 20.0147V0.851653ZM68.9995 0.851653L65.6269 21.7486L62.2563 0.851653H51.3503L50.7718 27.5849H57.4533L57.6342 2.83713L62.2312 27.5849H69.0101L73.6113 2.83713L73.7929 27.5849H80.4912L79.8932 0.851653H68.9995ZM28.6203 0.851653L23.6682 27.5849H30.8896L34.6213 2.83713L38.2634 27.5849H45.4347L40.5033 0.851653H28.6203ZM154.75 22.3751L148.454 0.851653H138.534V27.3061H145.096L144.715 5.09413L151.476 27.3061H160.991V0.851653H154.385L154.75 22.3751ZM94.0466 7.80906C93.9278 7.28111 93.9621 6.72021 94.0236 6.42705C94.2148 5.57128 94.7898 4.63793 96.4464 4.63793C97.9904 4.63793 98.8956 5.60046 98.8956 7.04494V8.67959H105.486V6.81632C105.486 1.05624 100.322 0.151381 96.5833 0.151381C91.8744 0.151381 88.0287 1.70365 87.3264 6.03778C87.1407 7.21726 87.0947 8.26424 87.3902 9.60024C88.5354 15.0044 97.9434 16.5721 99.3089 19.9897C99.5499 20.6371 99.4809 21.4626 99.358 21.9491C99.1534 22.8385 98.5551 23.733 96.7814 23.733C95.1179 23.733 94.1166 22.7767 94.1166 21.3353L94.1145 18.7697H87.0205V20.8091C87.0205 26.7185 91.6492 28.5014 96.6345 28.5014C101.409 28.5014 105.353 26.8698 105.985 22.4471C106.287 20.162 106.059 18.6736 105.938 18.113C104.833 12.5702 94.8055 10.903 94.0466 7.80906ZM7.10545 7.74349C6.97603 7.20456 7.00624 6.63576 7.07833 6.33917C7.26095 5.48752 7.83935 4.53769 9.52515 4.53769C11.0888 4.53769 12.0094 5.50949 12.0094 6.96564V8.62021H18.6774V6.74218C18.6774 0.926831 13.4343 -1.64656e-06 9.65457 -1.64656e-06C4.90611 -1.64656e-06 1.02613 1.5763 0.31625 5.94167C0.121959 7.14003 0.088651 8.19421 0.369446 9.54498C1.52695 15.0105 11.028 16.5909 12.4103 20.0494C12.6692 20.6923 12.5909 21.5179 12.4625 22.0232C12.2432 22.9219 11.64 23.8291 9.85161 23.8291C8.1816 23.8291 7.18269 22.8563 7.18269 21.395L7.17341 18.8225H-0.000244141V20.8667C-0.000244141 26.8437 4.69397 28.6411 9.71808 28.6411C14.5482 28.6411 18.5147 26.9951 19.1618 22.5213C19.4834 20.2152 19.2421 18.7144 19.1336 18.1453C18.0053 12.5345 7.86648 10.8727 7.10545 7.74349Z" fill="white"/>
</g>
</g>
<defs>
<clipPath id="clip0_7615_16768">
<rect width="187" height="28.6411" fill="white"/>
</clipPath>
</defs>
</svg>
