<svg width="400" height="402" viewBox="0 0 400 402" fill="none" xmlns="http://www.w3.org/2000/svg">
<circle cx="288.461" cy="289.694" r="111.538" fill="#F3F4F6"/>
<circle cx="34.6156" cy="35.8475" r="34.6154" transform="rotate(180 34.6156 35.8475)" fill="#F3F4F6"/>
<path d="M200.5 194.312L135.531 237.625M200.5 194.312L200.5 144.812M200.5 194.312L262.375 235.563M89.7318 201.876L89.769 200.5L90.5949 169.897C91.0847 151.748 101.47 135.324 117.656 127.101L139.232 116.14M250 299.5L222.637 313.181C208.701 320.149 192.299 320.149 178.363 313.181L151 299.5M311.268 201.876L310.405 169.897C309.915 151.748 299.53 135.324 283.344 127.101L261.768 116.14M225.25 113.875C225.25 127.544 214.169 138.625 200.5 138.625C186.831 138.625 175.75 127.544 175.75 113.875C175.75 100.206 186.831 89.125 200.5 89.125C214.169 89.125 225.25 100.206 225.25 113.875ZM311.875 252.475C311.875 266.144 300.794 277.225 287.125 277.225C273.456 277.225 262.375 266.144 262.375 252.475C262.375 238.806 273.456 227.725 287.125 227.725C300.794 227.725 311.875 238.806 311.875 252.475ZM138.625 252.475C138.625 266.144 127.544 277.225 113.875 277.225C100.206 277.225 89.125 266.144 89.125 252.475C89.125 238.806 100.206 227.725 113.875 227.725C127.544 227.725 138.625 238.806 138.625 252.475Z" stroke="black" stroke-width="13" stroke-linecap="round" stroke-linejoin="round"/>
</svg>
