<svg width="400" height="402" viewBox="0 0 400 402" fill="none" xmlns="http://www.w3.org/2000/svg">
<circle cx="288.461" cy="289.694" r="111.538" fill="#F3F4F6"/>
<circle cx="34.6156" cy="35.8475" r="34.6154" transform="rotate(180 34.6156 35.8475)" fill="#F3F4F6"/>
<path d="M200.5 64.375V336.625M262.375 113.875H169.562C158.075 113.875 147.059 118.438 138.936 126.561C130.813 134.684 126.25 145.7 126.25 157.188C126.25 168.675 130.813 179.691 138.936 187.814C147.059 195.937 158.075 200.5 169.562 200.5H231.438C242.925 200.5 253.941 205.063 262.064 213.186C270.187 221.309 274.75 232.325 274.75 243.812C274.75 255.3 270.187 266.316 262.064 274.439C253.941 282.562 242.925 287.125 231.438 287.125H126.25" stroke="black" stroke-width="13" stroke-linecap="round" stroke-linejoin="round"/>
</svg>
